<svg width="5678" height="111" viewBox="0 0 5678 111" fill="none" xmlns="http://www.w3.org/2000/svg">
<path d="M1 49C1 49 137.5 -0.768497 295 52.4995C542.17 136.095 554.422 107.636 845.5 47C1049.5 4.50371 1339.16 57.0767 1397 65C1543 85 1644.5 76.5 1787 44C1996.63 2.86902 1989.5 32.1567 2241.64 75.6187C2403.01 91.7157 2502.82 43.4247 2589.74 32.1567C2676.66 20.8887 3077.88 41.8147 3140.66 75.6187C3203.44 109.423 3666.64 111.032 3763.22 61.1307C3859.8 11.2297 4304.49 64.3506 4360.83 86.8866C4417.17 109.423 4663.45 64.3507 4724.62 48.2537C4785.79 32.1567 5154.41 62.7416 5204.31 86.8866C5254.22 111.032 5670.06 21.8648 5676.5 -5.50016C5682.94 -32.8652 1 -0.000518799 1 -0.000518799V49Z" fill="white" stroke="white"/>
</svg>
