<svg width="5676" height="105" viewBox="0 0 5676 105" fill="none" xmlns="http://www.w3.org/2000/svg">
<path d="M0 49C0 49 136.5 -0.768497 294 52.4995C541.17 136.095 553.422 107.636 844.5 47C1048.5 4.50371 1340 48.5 1396 65C1512.03 99.1868 1643.5 76.5 1786 44C1995.63 2.86902 1988.5 32.1567 2240.64 75.6187C2402.01 91.7157 2501.82 43.4247 2588.74 32.1567C2675.66 20.8887 3076.88 41.8147 3139.66 75.6187C3202.44 109.423 3665.64 111.032 3762.22 61.1307C3858.8 11.2297 4303.49 64.3506 4359.83 86.8866C4416.17 109.423 4662.45 64.3507 4723.62 48.2537C4784.79 32.1567 5153.41 62.7416 5203.31 86.8866C5253.22 111.032 5669.06 21.8648 5675.5 -5.50016C5681.94 -32.8652 0 -0.000518799 0 -0.000518799V49Z" fill="white"/>
</svg>
