<svg width="866" height="651" viewBox="0 0 866 651" fill="none" xmlns="http://www.w3.org/2000/svg">
<g clip-path="url(#clip0)">
<path d="M834.043 0.00108443H593.428C581.817 0.00107181 570.551 3.95143 561.483 11.2028C552.415 18.4542 546.083 28.575 543.53 39.9017L421.952 579.169C420.626 585.051 420.602 591.152 421.883 597.044C423.164 602.936 425.719 608.476 429.367 613.277C433.016 618.077 437.67 622.021 443.004 624.833C448.339 627.644 454.223 629.255 460.245 629.551L707.6 641.738C720.845 642.391 733.875 638.202 744.259 629.954C754.642 621.705 761.67 609.96 764.03 596.911L832.997 215.643L838.128 217.109L851.324 144.844L846.042 143.524L865.293 37.0984C866.118 32.54 865.927 27.8558 864.733 23.3798C863.54 18.9038 861.374 14.7461 858.389 11.2032C855.405 7.66033 851.676 4.81948 847.467 2.88316C843.259 0.946854 838.675 -0.0372279 834.043 0.0010768L834.043 0.00108443Z" fill="#3F3D56"/>
<path d="M625.104 11.626H597.017C588.951 11.626 581.128 14.3846 574.846 19.4439C568.563 24.5032 564.201 31.5588 562.481 39.4395L445.783 574.307C445.111 577.386 445.111 580.575 445.785 583.654C446.458 586.733 447.788 589.631 449.683 592.149C451.579 594.667 453.996 596.746 456.768 598.245C459.541 599.744 462.605 600.626 465.75 600.832L712.304 616.991C719.26 617.447 726.14 615.326 731.631 611.033C737.123 606.739 740.841 600.574 742.077 593.714L841.656 40.8762C842.301 37.298 842.152 33.6219 841.221 30.1074C840.29 26.593 838.598 23.3257 836.267 20.5362C833.935 17.7468 831.019 15.5031 827.725 13.9635C824.431 12.4239 820.84 11.626 817.204 11.626H790.559C787.98 11.626 785.473 12.4761 783.427 14.0448C781.38 15.6135 779.907 17.8132 779.237 20.3034V20.3034C778.645 22.5018 777.345 24.4438 775.538 25.8286C773.731 27.2135 771.517 27.964 769.241 27.964H642.747C638.289 27.964 633.995 26.2813 630.724 23.2522C627.453 20.2231 625.446 16.071 625.104 11.626V11.626Z" fill="white"/>
<path d="M361.188 286.745L382.928 329.782L447.928 359.332C454.87 371.063 476.928 371.961 478.532 364.375C480.332 355.864 451.746 342.166 451.746 342.166L397.378 305.393L392.621 273.735L361.188 286.745Z" fill="#FEC194"/>
<path d="M363.753 575.559L359.744 607.632L382.997 609.236L385.402 575.559H363.753Z" fill="#FEC194"/>
<path d="M366.961 602.821C364.882 600.623 362.965 598.278 361.223 595.804C357.891 591.192 354.934 614.848 354.934 614.848C354.934 614.848 351.726 624.47 352.528 629.281C353.33 634.092 371.772 634.092 374.979 633.29C378.186 632.488 394.223 633.29 394.223 633.29H418.277C439.125 623.668 418.277 617.254 418.277 617.254C411.863 616.452 390.214 596.406 390.214 596.406L385.403 587.586C382.196 586.784 378.988 598.812 378.988 598.812L366.961 602.821Z" fill="#2F2E41"/>
<path d="M303.617 575.96L299.607 608.033L322.86 609.637L325.266 575.96H303.617Z" fill="#FEC194"/>
<path d="M306.824 603.222C304.745 601.024 302.828 598.679 301.086 596.205C297.754 591.594 294.797 615.249 294.797 615.249C294.797 615.249 291.59 624.069 292.391 628.88C293.193 633.691 311.635 633.691 314.842 632.89C318.05 632.088 334.086 633.691 334.086 633.691H358.141C378.988 624.07 358.141 617.655 358.141 617.655C351.726 616.853 330.077 596.808 330.077 596.808L325.266 587.988C322.059 587.186 318.851 599.213 318.851 599.213L306.824 603.222Z" fill="#2F2E41"/>
<path d="M330.077 369.09C326.869 373.099 328.473 386.73 328.473 386.73C328.473 386.73 322.86 430.831 325.266 434.84C327.671 438.849 323.662 442.056 321.257 447.669C318.851 453.282 316.446 466.913 316.446 466.913C302.815 478.138 303.617 529.455 303.617 529.455L298.806 575.159C300.409 579.97 322.86 580.771 326.068 579.97C329.275 579.168 338.897 507.004 338.897 507.004L360.546 466.111C360.546 466.111 358.942 575.159 358.942 579.97C358.942 584.781 380.591 582.375 385.402 582.375C390.213 582.375 390.213 502.193 390.213 502.193L395.024 481.346L420.683 385.929V374.703L416.673 369.09C416.673 369.09 333.284 365.081 330.077 369.09Z" fill="#2F2E41"/>
<path d="M365.357 187.077C379.085 187.077 390.214 175.949 390.214 162.221C390.214 148.493 379.085 137.364 365.357 137.364C351.63 137.364 340.501 148.493 340.501 162.221C340.501 175.949 351.63 187.077 365.357 187.077Z" fill="#FEC194"/>
<path d="M377.785 173.847C372.746 185.066 375.73 200.737 385.803 217.947L344.91 198.703L351.325 193.09L349.721 177.054L377.785 173.847Z" fill="#FEC194"/>
<path d="M377.785 199.505C383.14 202.689 386.344 208.538 388.182 214.491C391.587 225.511 393.636 236.904 394.285 248.42L396.227 282.895L420.282 374.303C399.434 391.943 387.407 387.934 359.343 373.501C331.28 359.068 328.072 378.312 328.072 378.312C328.072 378.312 325.667 377.51 328.072 375.104C330.478 372.699 328.072 375.104 325.667 372.699C323.262 370.293 325.667 372.699 326.469 370.293C327.271 367.888 326.469 369.492 325.667 368.69C324.865 367.888 328.874 360.671 328.874 360.671L322.46 300.535L314.441 215.542C324.063 203.514 351.325 193.091 351.325 193.091L376.182 210.731C384.2 213.938 377.785 201.109 377.785 201.109L377.785 199.505Z" fill="#17BEFB"/>
<path d="M301.211 266.457L298.004 314.566L338.897 373.099C338.897 386.73 346.113 389.938 346.113 389.938C348.847 385.575 351.258 381.019 353.33 376.307C357.339 367.487 350.924 360.27 350.924 360.27L322.86 300.935L334.888 271.268L301.211 266.457Z" fill="#FEC194"/>
<path d="M314.842 215.942C301.211 220.753 298.806 272.871 298.806 272.871C314.842 264.051 334.086 278.484 334.086 278.484C334.086 278.484 338.095 264.853 342.906 247.213C344.358 242.251 344.532 237.002 343.411 231.955C342.289 226.908 339.909 222.227 336.491 218.347C336.491 218.347 328.473 211.131 314.842 215.942Z" fill="#17BEFB"/>
<path d="M342.505 169.838C345.669 167.306 349.986 171.908 349.986 171.908L352.517 149.124C352.517 149.124 368.339 151.023 378.465 148.492C388.591 145.96 390.173 157.668 390.173 157.668C390.695 152.94 390.801 148.175 390.49 143.429C389.857 137.733 381.63 132.037 367.074 128.24C352.518 124.443 344.923 140.897 344.923 140.897C334.797 145.96 339.34 172.369 342.505 169.838Z" fill="#2F2E41"/>
<path d="M765.024 385.545C765.507 385.563 765.98 385.408 766.359 385.108C766.737 384.807 766.996 384.382 767.088 383.907L822.373 82.9907C822.426 82.7043 822.416 82.4098 822.342 82.1278C822.269 81.8459 822.136 81.5833 821.951 81.3584C821.766 81.1335 821.534 80.9518 821.271 80.8258C821.008 80.6999 820.721 80.6329 820.43 80.6294L568.904 77.6992H568.881C568.427 77.7009 567.987 77.8562 567.633 78.1399C567.278 78.4237 567.03 78.8191 566.929 79.2617L501.755 370.411C501.692 370.696 501.691 370.99 501.753 371.275C501.816 371.56 501.939 371.828 502.116 372.059C502.293 372.291 502.518 372.482 502.776 372.617C503.034 372.753 503.318 372.831 503.609 372.845L765.024 385.545Z" fill="#00D3FF"/>
<path d="M546.13 404.767C545.904 404.767 545.685 404.843 545.509 404.984C545.332 405.124 545.208 405.32 545.157 405.54L542.835 415.496C542.802 415.637 542.8 415.783 542.829 415.925C542.858 416.067 542.918 416.2 543.004 416.317C543.09 416.433 543.2 416.529 543.326 416.599C543.453 416.669 543.593 416.71 543.738 416.721L674.968 426.048C675.211 426.063 675.452 425.99 675.645 425.842C675.839 425.694 675.972 425.48 676.02 425.241L678.254 413.723C678.281 413.583 678.278 413.439 678.245 413.3C678.212 413.162 678.15 413.032 678.063 412.919C677.976 412.807 677.865 412.714 677.739 412.648C677.613 412.581 677.474 412.543 677.332 412.534L546.191 404.769C546.171 404.768 546.15 404.767 546.13 404.767Z" fill="#E6E6E6"/>
<path d="M705.566 463.04C705.803 463.058 706.038 462.992 706.23 462.854C706.423 462.715 706.56 462.513 706.617 462.282L709.461 450.739C709.496 450.598 709.499 450.45 709.471 450.307C709.443 450.164 709.383 450.029 709.297 449.911C709.212 449.793 709.101 449.695 708.973 449.625C708.846 449.554 708.704 449.512 708.559 449.502L540.973 437.781C540.745 437.763 540.519 437.824 540.331 437.954C540.144 438.084 540.007 438.275 539.944 438.494L536.989 448.469C536.946 448.612 536.936 448.762 536.959 448.909C536.983 449.056 537.038 449.196 537.122 449.319C537.207 449.441 537.317 449.544 537.446 449.618C537.575 449.693 537.719 449.737 537.867 449.749L705.566 463.04Z" fill="#E6E6E6"/>
<path d="M696.566 500.04C696.803 500.059 697.039 499.993 697.231 499.855C697.424 499.716 697.56 499.513 697.617 499.282L700.461 487.739C700.496 487.598 700.499 487.45 700.471 487.307C700.443 487.164 700.383 487.029 700.297 486.911C700.212 486.793 700.101 486.695 699.973 486.625C699.846 486.554 699.704 486.512 699.559 486.502L531.973 474.781C531.745 474.763 531.519 474.824 531.331 474.954C531.143 475.084 531.007 475.275 530.944 475.494L527.989 485.469C527.946 485.612 527.936 485.762 527.959 485.909C527.983 486.056 528.038 486.196 528.122 486.319C528.207 486.441 528.317 486.544 528.446 486.618C528.575 486.693 528.719 486.737 528.867 486.749L696.566 500.04Z" fill="#E6E6E6"/>
<path d="M619.383 563.514C619.621 563.539 619.861 563.476 620.057 563.338C620.253 563.199 620.391 562.994 620.447 562.76L626.46 538.709C626.495 538.569 626.499 538.422 626.472 538.28C626.445 538.137 626.387 538.002 626.303 537.884C626.219 537.767 626.11 537.668 625.984 537.597C625.858 537.525 625.718 537.481 625.573 537.469L522.657 528.813C522.417 528.796 522.179 528.866 521.985 529.008C521.791 529.151 521.653 529.358 521.597 529.592L516.468 552.675C516.437 552.814 516.436 552.957 516.465 553.096C516.494 553.235 516.553 553.366 516.636 553.481C516.719 553.595 516.826 553.691 516.95 553.761C517.073 553.831 517.21 553.875 517.351 553.888L619.383 563.514Z" fill="#17BEFB"/>
</g>
<defs>
<clipPath id="clip0">
<rect width="865.802" height="650.463" fill="white"/>
</clipPath>
</defs>
</svg>
