<svg width="470" height="342" viewBox="0 0 470 342" fill="none" xmlns="http://www.w3.org/2000/svg">
<g clip-path="url(#clip0)">
<path d="M372.145 226.047C321.819 291.896 202.39 336.335 135.753 292.35C69.1148 248.366 55.1015 130.921 105.427 65.0728C155.752 -0.775833 310.412 33.4344 377.05 77.4189C443.687 121.403 422.47 160.199 372.145 226.047Z" fill="url(#paint0_linear)"/>
<path d="M226.187 244.755C264.15 244.755 294.925 242.648 294.925 240.049C294.925 237.449 264.15 235.342 226.187 235.342C188.225 235.342 157.45 237.449 157.45 240.049C157.45 242.648 188.225 244.755 226.187 244.755Z" fill="#3F3D56"/>
<path opacity="0.1" d="M226.775 243.578C259.222 243.578 285.525 241.998 285.525 240.048C285.525 238.099 259.222 236.518 226.775 236.518C194.328 236.518 168.025 238.099 168.025 240.048C168.025 241.998 194.328 243.578 226.775 243.578Z" fill="black"/>
<path d="M194.442 102.374L141 152.972L194.442 203.57L206.466 192.042L166.051 153.292L206.8 114.222L194.442 102.374Z" fill="white"/>
<path d="M264.762 105.904L317.25 156.502L264.762 207.101L252.953 195.572L292.647 156.822L252.625 117.752L264.762 105.904Z" fill="white"/>
<path d="M197.975 212.475C197.188 212.929 196.358 213.298 195.499 213.575C193.961 214.011 192.317 213.851 190.764 214.223C190.128 214.375 189.436 214.694 189.234 215.338C189.085 215.81 189.247 216.32 189.401 216.79C191.118 222.01 192.152 227.553 194.889 232.281C196.039 234.267 197.467 236.065 199.126 237.617C199.748 238.199 200.453 238.768 201.286 238.859C201.67 238.901 202.058 238.838 202.411 238.674C202.763 238.511 203.068 238.255 203.294 237.93C203.521 237.606 203.661 237.225 203.7 236.827C203.739 236.428 203.676 236.026 203.518 235.661C203.273 235.095 202.816 234.657 202.522 234.117C202.203 233.429 202.016 232.683 201.971 231.921C201.701 229.689 201.44 227.355 202.186 225.242C202.686 223.825 203.604 222.617 204.368 221.332C205.132 220.048 205.767 218.577 205.597 217.078C205.481 216.055 205 215.119 204.492 214.234C203.983 213.348 202.977 210.965 201.954 210.669C200.892 210.362 198.901 211.983 197.975 212.475Z" fill="white"/>
<path d="M227.824 231.194C227.842 231.718 227.768 232.241 227.607 232.74C227.261 233.65 226.403 234.274 225.96 235.141C225.343 236.347 225.622 237.805 226.031 239.095C226.287 239.905 226.623 240.747 227.311 241.247C227.899 241.61 228.568 241.824 229.259 241.869C235.16 242.682 241.154 242.216 247.108 242.386C248.193 242.417 249.342 242.455 250.29 241.927C251.237 241.398 251.823 240.07 251.179 239.2C250.6 238.418 249.456 238.425 248.482 238.379C245.946 238.251 243.531 237.26 241.64 235.572C241.267 235.254 240.944 234.883 240.681 234.471C240.478 234.105 240.31 233.722 240.179 233.325C239.344 231.073 238.351 228.882 237.207 226.768C236.887 226.177 236.524 225.561 235.929 225.244C235.493 225.047 235.021 224.944 234.542 224.943C233.058 224.847 229.215 224.344 228.067 225.493C227.007 226.556 227.848 229.845 227.824 231.194Z" fill="white"/>
<path d="M236.762 105.904C242.278 105.904 246.75 101.952 246.75 97.0782C246.75 92.2042 242.278 88.2529 236.762 88.2529C231.247 88.2529 226.775 92.2042 226.775 97.0782C226.775 101.952 231.247 105.904 236.762 105.904Z" fill="#FBBEBE"/>
<path d="M228.21 105.025C227.704 106.34 226.847 107.574 225.6 108.282L237.35 110.61C236.924 108.944 236.868 107.209 237.185 105.52C237.302 105.111 237.326 104.683 237.256 104.264C237.035 103.436 236.075 103.037 235.216 102.847C233.072 102.372 231.175 102.117 229.183 101.197C228.573 102.21 228.659 103.857 228.21 105.025Z" fill="#FBBEBE"/>
<path d="M224.537 105.574C225.946 104.981 227.481 104.693 229.027 104.73C230.572 104.768 232.089 105.13 233.463 105.79C235.142 106.613 236.532 107.854 237.898 109.079C239.157 110.208 240.5 111.501 240.589 113.124C240.632 113.911 240.368 114.681 240.235 115.458C239.995 117.067 240.3 118.705 241.107 120.146C241.913 121.587 243.183 122.758 244.738 123.499C245.778 125.109 245.993 127.061 246.009 128.94C246.069 136.059 243.653 143.265 245.378 150.201C245.783 151.829 246.411 153.407 246.761 155.046C247.214 157.17 247.192 159.353 247.429 161.507C247.686 163.839 248.247 166.133 249.1 168.34C248.53 169.182 247.344 169.505 246.276 169.437C245.208 169.369 244.209 168.938 243.256 168.485C238.64 166.289 234.413 163.395 229.633 161.529C226.47 160.295 223.101 159.526 220.033 158.1C216.965 156.675 214.112 154.412 213.174 151.345C212.768 150.019 212.743 148.622 212.721 147.244C212.628 141.438 212.541 135.569 213.901 129.902C215.1 124.904 217.411 120.123 217.915 115.024C218.079 113.364 218.083 111.587 219.081 110.202C220.491 108.245 223.535 107.738 224.537 105.574Z" fill="#2F2E41"/>
<path d="M230.847 96.47C231.387 95.8188 232.428 95.73 233.291 95.9226C234.153 96.1152 234.949 96.5263 235.82 96.6825C236.018 96.7345 236.225 96.7476 236.429 96.7212C236.633 96.6947 236.828 96.6292 237.003 96.5288C237.308 96.2515 237.49 95.8793 237.514 95.4848C237.819 93.806 237.891 92.098 237.726 90.4025C237.681 90.1647 237.698 89.9202 237.777 89.6898C237.992 89.2093 238.65 89.0949 239.188 88.9407C240.074 88.6636 240.836 88.1213 241.352 87.3994C241.868 86.6775 242.109 85.8171 242.038 84.9543C242.024 84.5404 241.836 84.1478 241.514 83.8605C241.142 83.5805 240.622 83.5633 240.143 83.5597C237.68 83.5414 235.217 83.542 232.754 83.5614C231.842 83.5685 230.885 83.5893 230.094 84.0095C229.51 84.3203 229.076 84.8204 228.551 85.2118C227.183 86.2326 225.332 86.4404 223.668 86.9635C222.856 87.1775 222.118 87.5843 221.528 88.1436C220.975 88.7283 220.708 89.5978 221.056 90.3053C221.235 90.6002 221.434 90.8838 221.653 91.1544C222.634 92.606 221.981 94.4888 222.128 96.1955C222.311 98.3267 225.721 101.784 228.034 102.288C231.768 103.102 229.611 97.8689 230.847 96.47Z" fill="#2F2E41"/>
<path d="M226.289 196.562C226.537 198.17 226.855 199.783 226.77 201.405C226.651 203.669 225.752 205.85 225.586 208.112C225.462 209.801 225.749 211.508 225.49 213.184C225.325 214.258 224.939 215.293 224.701 216.355C224.323 218.085 224.333 219.868 224.732 221.594C225.131 223.321 225.909 224.957 227.021 226.405C227.184 226.652 227.417 226.857 227.694 226.997C227.961 227.087 228.246 227.121 228.529 227.097C231.335 227.045 234.134 226.814 236.904 226.406C237.107 226.399 237.299 226.322 237.442 226.191C237.505 226.104 237.545 226.005 237.559 225.903C238.073 223.505 236.901 221.101 236.603 218.674C236.285 216.082 236.97 213.484 237.65 210.95C237.959 209.7 238.344 208.467 238.804 207.256C239.133 206.441 239.53 205.649 239.815 204.82C240.218 203.519 240.464 202.181 240.547 200.832C240.745 198.702 240.85 196.567 240.862 194.427C240.929 192.4 240.743 190.372 240.308 188.382C239.683 185.863 238.403 183.524 237.134 181.213C236.456 181.36 235.819 181.635 235.265 182.02C233.63 182.981 231.924 183.837 230.157 184.582C228.97 185.082 226.656 185.438 225.903 186.481C225.16 187.509 225.639 189.608 225.696 190.742C225.793 192.689 225.991 194.629 226.289 196.562Z" fill="#2F2E41"/>
<path opacity="0.1" d="M226.289 196.562C226.537 198.17 226.855 199.783 226.77 201.405C226.651 203.669 225.752 205.85 225.586 208.112C225.462 209.801 225.749 211.508 225.49 213.184C225.325 214.258 224.939 215.293 224.701 216.355C224.323 218.085 224.333 219.868 224.732 221.594C225.131 223.321 225.909 224.957 227.021 226.405C227.184 226.652 227.417 226.857 227.694 226.997C227.961 227.087 228.246 227.121 228.529 227.097C231.335 227.045 234.134 226.814 236.904 226.406C237.107 226.399 237.299 226.322 237.442 226.191C237.505 226.104 237.545 226.005 237.559 225.903C238.073 223.505 236.901 221.101 236.603 218.674C236.285 216.082 236.97 213.484 237.65 210.95C237.959 209.7 238.344 208.467 238.804 207.256C239.133 206.441 239.53 205.649 239.815 204.82C240.218 203.519 240.464 202.181 240.547 200.832C240.745 198.702 240.85 196.567 240.862 194.427C240.929 192.4 240.743 190.372 240.308 188.382C239.683 185.863 238.403 183.524 237.134 181.213C236.456 181.36 235.819 181.635 235.265 182.02C233.63 182.981 231.924 183.837 230.157 184.582C228.97 185.082 226.656 185.438 225.903 186.481C225.16 187.509 225.639 189.608 225.696 190.742C225.793 192.689 225.991 194.629 226.289 196.562Z" fill="black"/>
<path d="M214.085 160.032C212.873 163.313 214.654 166.858 216.202 169.992C220.015 177.715 222.664 185.955 225.298 194.16C225.495 194.775 225.692 195.446 225.472 196.052C225.282 196.483 224.974 196.851 224.583 197.112C222.767 198.499 220.455 198.993 218.291 199.718C216.2 200.42 214.198 201.364 212.324 202.531C210.756 203.507 209.288 204.635 207.822 205.76L203.156 209.342C202.854 209.548 202.59 209.804 202.376 210.101C201.926 210.811 202.111 211.738 202.335 212.549C202.928 214.696 203.692 216.792 204.619 218.816C204.772 219.26 205.062 219.643 205.448 219.908C206.176 220.301 207.067 219.78 207.623 219.165C208.179 218.549 208.66 217.784 209.444 217.52C210.227 217.256 211.089 217.576 211.906 217.46C213.229 217.274 214.107 216.049 215.061 215.109C218.956 211.267 225.459 211.546 229.744 208.149C230.363 207.592 231.019 207.077 231.706 206.607C232.431 206.177 233.252 205.941 234.004 205.56C236.29 204.403 237.727 202.011 238.497 199.557C239.266 197.103 239.486 194.513 240.039 192.001C240.325 190.702 240.701 189.417 240.829 188.094C240.911 186.862 240.884 185.626 240.749 184.399L239.203 165.172C239.077 163.606 238.951 162.039 238.707 160.488C234.115 160.653 229.526 160.839 224.932 160.893C221.276 160.937 217.553 161.194 214.085 160.032Z" fill="#2F2E41"/>
<path d="M211.952 166.177C212.588 167.312 214.135 167.289 215.201 166.666C216.266 166.044 217.094 164.999 218.162 164.382C219.596 163.553 221.294 163.584 222.911 163.635C225.471 163.715 228.063 163.801 230.526 164.579C233.073 165.385 235.553 166.936 238.188 166.627C238.646 166.573 239.147 166.427 239.397 165.996C239.543 165.685 239.612 165.335 239.596 164.984L239.682 162.43C239.735 161.988 239.671 161.538 239.499 161.136C239.278 160.801 238.975 160.543 238.626 160.394C234.876 158.379 230.601 158.004 226.437 157.845C224.321 157.765 222.204 157.732 220.086 157.746C218.289 157.758 216.131 157.469 214.384 158.003C212.039 158.718 210.763 164.053 211.952 166.177Z" fill="#2F2E41"/>
<path d="M235.702 107.765C230.852 107.726 226.458 104.806 221.608 104.735C221.023 104.698 220.436 104.79 219.897 105.004C219.221 105.315 218.777 105.915 218.264 106.422C216.83 107.838 214.754 108.594 213.281 109.976C211.899 111.272 211.131 113.203 211.677 114.941C212.222 116.679 214.28 118.011 216.208 117.594C216.985 115.301 218.588 113.314 220.758 111.956C221.886 111.295 223.076 110.726 224.313 110.253C226.493 109.353 228.93 108.435 231.205 109.11C232.044 109.399 232.836 109.793 233.557 110.279L237.35 112.603C236.908 111.013 236.511 109.23 235.702 107.765Z" fill="#0072FF"/>
<path d="M214.844 116.44C214.188 117.216 215.132 118.34 214.988 119.324C214.892 119.978 214.324 120.478 214.088 121.099C213.843 121.743 213.973 122.456 213.88 123.134C213.787 123.627 213.649 124.112 213.468 124.583C213.052 125.99 212.762 127.427 212.6 128.88L211.736 135.001C211.586 135.922 211.495 136.851 211.463 137.782C211.507 138.478 211.458 139.177 211.317 139.861C211.126 140.53 210.702 141.115 210.417 141.754C210.132 142.392 210 143.164 210.385 143.753C209.096 144.771 208.712 146.772 209.614 148.114C209.785 148.323 209.92 148.558 210.011 148.808C210.061 149.158 210 149.514 209.836 149.831L208.962 152.039C208.739 152.605 208.668 153.465 209.29 153.594C208.775 154.101 208.374 154.703 208.11 155.361C207.983 155.692 207.944 156.047 207.999 156.396C208.054 156.744 208.2 157.074 208.424 157.354C208.642 157.535 208.826 157.748 208.972 157.984C209.057 158.314 209.035 158.66 208.909 158.978C208.778 159.46 208.753 159.963 208.835 160.454C208.916 160.946 209.103 161.417 209.384 161.838C209.675 162.253 210.088 162.578 210.57 162.774C211.053 162.971 211.586 163.029 212.104 162.943C213.851 162.569 215.422 161.979 217.184 162.286C220.978 162.946 224.785 163.609 228.46 164.722C232.654 165.992 236.715 167.855 241.098 168.246C241.386 168.302 241.686 168.257 241.943 168.121C242.167 167.92 242.306 167.649 242.334 167.359C242.786 165.351 243.237 163.342 243.689 161.334C244.235 159.108 244.651 156.855 244.934 154.585C245.089 153.12 245.132 151.647 245.176 150.175L245.525 138.462C245.689 136.735 245.446 134.996 244.815 133.37L242.806 127.288C241.66 123.818 239.031 120.74 238.095 117.214C237.502 114.982 237.065 112.586 235.476 110.847C233.211 108.367 229.292 107.981 225.861 108.407C224.312 108.6 222.749 108.932 221.409 109.695C219.859 110.576 218.717 111.964 217.612 113.321C216.702 114.439 215.775 115.338 214.844 116.44Z" fill="white"/>
<path d="M223.583 150.312C223.877 151.518 224.495 152.631 224.873 153.816C225.506 155.801 225.452 157.939 226.084 159.925C226.35 160.758 226.734 161.559 226.924 162.411C227.368 164.396 226.72 166.451 225.915 168.331C225.11 170.212 224.129 172.066 223.868 174.081C223.684 175.5 223.948 177.103 225.098 178.024C226.292 178.98 228.026 178.915 229.581 178.788C230.139 178.773 230.69 178.664 231.208 178.466C232.397 177.93 232.898 176.592 233.176 175.369C234.107 171.269 233.841 167.021 233.57 162.835L232.862 151.887C232.726 149.78 232.58 147.629 231.898 145.605C231.649 144.869 231.217 143.381 230.51 142.911C229.81 142.446 227.811 142.425 226.945 142.386C222.879 142.205 222.924 147.604 223.583 150.312Z" fill="#FBBEBE"/>
<path d="M227.589 112.011C226.786 111.612 225.776 111.784 225 112.229C224.251 112.716 223.596 113.322 223.061 114.019C221.327 116.031 219.492 118.339 219.749 120.929C219.846 121.9 220.237 122.818 220.502 123.76C221.664 127.891 220.379 132.26 220.526 136.533C220.611 139.003 221.177 141.432 221.739 143.844C221.854 144.336 222.038 144.906 222.539 145.072C222.915 145.196 223.322 145.036 223.694 144.901C225.082 144.414 226.572 144.251 228.039 144.427C229.507 144.603 230.908 145.112 232.125 145.912C233.055 145.44 232.707 143.947 232.498 142.965C231.878 140.045 232.719 137.033 233.741 134.217C234.763 131.401 235.985 128.589 236.154 125.614C236.346 122.244 235.171 118.955 234.011 115.765C233.758 115.069 233.482 114.339 232.895 113.858C232.392 113.503 231.817 113.252 231.205 113.124C229.974 112.778 228.726 112.578 227.589 112.011Z" fill="#2F2E41"/>
</g>
<defs>
<linearGradient id="paint0_linear" x1="145.658" y1="33.7953" x2="362.532" y2="305.956" gradientUnits="userSpaceOnUse">
<stop offset="0.0463371" stop-color="#00C6FF"/>
<stop offset="0.299874" stop-color="#00BFFF"/>
<stop offset="1" stop-color="#0072FF"/>
</linearGradient>
<clipPath id="clip0">
<rect width="470" height="342" fill="white"/>
</clipPath>
</defs>
</svg>
