<svg width="470" height="342" viewBox="0 0 470 342" fill="none" xmlns="http://www.w3.org/2000/svg">
<path d="M230 290C286.333 290 332 286.866 332 283C332 279.134 286.333 276 230 276C173.667 276 128 279.134 128 283C128 286.866 173.667 290 230 290Z" fill="#3F3D56"/>
<path opacity="0.1" d="M231 288C279.049 288 318 285.761 318 283C318 280.239 279.049 278 231 278C182.951 278 144 280.239 144 283C144 285.761 182.951 288 231 288Z" fill="black"/>
<path d="M182.782 79L104 154L182.782 229L200.508 211.912L140.93 154.474L201 96.5627L182.782 79Z" fill="white"/>
<path d="M287.03 85L365 159.5L287.03 234L269.487 217.026L328.452 159.971L269 102.446L287.03 85Z" fill="white"/>
<path d="M188.373 242.677C187.178 243.337 185.917 243.872 184.61 244.275C182.273 244.907 179.775 244.675 177.415 245.215C176.448 245.436 175.397 245.899 175.089 246.833C174.864 247.519 175.109 248.259 175.344 248.942C177.952 256.52 179.524 264.567 183.684 271.432C185.432 274.315 187.602 276.926 190.123 279.178C191.069 280.023 192.14 280.849 193.406 280.982C193.99 281.043 194.579 280.95 195.115 280.713C195.651 280.477 196.114 280.104 196.458 279.633C196.802 279.162 197.015 278.609 197.074 278.031C197.134 277.453 197.039 276.869 196.798 276.339C196.425 275.517 195.731 274.881 195.284 274.097C194.799 273.098 194.515 272.016 194.447 270.909C194.036 267.668 193.64 264.28 194.774 261.212C195.534 259.155 196.928 257.401 198.09 255.536C199.251 253.672 200.216 251.536 199.958 249.36C199.781 247.875 199.05 246.516 198.278 245.232C197.504 243.944 195.975 240.485 194.421 240.056C192.807 239.61 189.781 241.963 188.373 242.677Z" fill="white"/>
<path d="M232.27 269.855C232.295 270.657 232.187 271.457 231.951 272.221C231.442 273.613 230.18 274.567 229.529 275.893C228.622 277.738 229.033 279.968 229.634 281.943C230.01 283.181 230.504 284.469 231.515 285.234C232.38 285.79 233.363 286.116 234.379 286.185C243.053 287.429 251.864 286.715 260.617 286.976C262.213 287.024 263.902 287.081 265.295 286.273C266.687 285.465 267.548 283.433 266.601 282.102C265.75 280.906 264.069 280.917 262.637 280.847C258.909 280.65 255.359 279.135 252.579 276.552C252.031 276.067 251.556 275.5 251.169 274.869C250.871 274.309 250.624 273.722 250.431 273.115C249.204 269.67 247.744 266.319 246.062 263.086C245.592 262.181 245.059 261.239 244.184 260.755C243.543 260.453 242.848 260.296 242.145 260.294C239.963 260.147 234.314 259.377 232.627 261.136C231.068 262.761 232.304 267.792 232.27 269.855Z" fill="white"/>
<path d="M245.5 85C253.508 85 260 79.1797 260 72C260 64.8203 253.508 59 245.5 59C237.492 59 231 64.8203 231 72C231 79.1797 237.492 85 245.5 85Z" fill="#FBBEBE"/>
<path d="M232.998 83.694C232.224 85.6488 230.911 87.4847 229 88.5366L247 92C246.347 89.522 246.261 86.9412 246.748 84.4293C246.926 83.8214 246.963 83.1841 246.855 82.5614C246.517 81.3296 245.047 80.7366 243.731 80.4538C240.446 79.7474 237.541 79.3686 234.488 78C233.555 79.5068 233.686 81.9567 232.998 83.694Z" fill="#FBBEBE"/>
<path d="M227.586 84.2558C229.674 83.3768 231.95 82.9491 234.241 83.0048C236.533 83.0605 238.781 83.5981 240.818 84.5773C243.307 85.7972 245.368 87.6386 247.393 89.4553C249.259 91.1299 251.25 93.0474 251.383 95.4562C251.447 96.6231 251.055 97.7644 250.857 98.9183C250.502 101.305 250.954 103.735 252.15 105.872C253.346 108.009 255.227 109.746 257.533 110.844C259.076 113.234 259.394 116.129 259.417 118.916C259.507 129.475 255.925 140.165 258.482 150.453C259.083 152.869 260.014 155.208 260.533 157.64C261.205 160.79 261.171 164.029 261.523 167.224C261.904 170.683 262.736 174.086 264 177.359C263.155 178.609 261.397 179.088 259.813 178.987C258.23 178.886 256.749 178.247 255.336 177.574C248.494 174.318 242.227 170.024 235.14 167.256C230.452 165.425 225.457 164.285 220.909 162.17C216.36 160.056 212.13 156.7 210.74 152.151C210.138 150.184 210.101 148.111 210.068 146.067C209.93 137.455 209.802 128.749 211.817 120.342C213.595 112.929 217.021 105.837 217.769 98.2735C218.012 95.8115 218.017 93.1759 219.496 91.1216C221.587 88.2179 226.101 87.4659 227.586 84.2558Z" fill="#2F2E41"/>
<path d="M236.579 70.5335C237.371 69.5997 238.897 69.4724 240.161 69.7486C241.426 70.0248 242.591 70.6143 243.868 70.8383C244.158 70.9128 244.463 70.9317 244.761 70.8938C245.06 70.8558 245.347 70.7618 245.603 70.6178C246.049 70.2202 246.316 69.6865 246.352 69.1207C246.799 66.7132 246.904 64.2638 246.663 61.8323C246.596 61.4912 246.621 61.1406 246.736 60.8102C247.052 60.121 248.017 59.957 248.804 59.7359C250.104 59.3385 251.22 58.5608 251.977 57.5255C252.733 56.4902 253.087 55.2565 252.982 54.019C252.962 53.4255 252.687 52.8625 252.214 52.4505C251.669 52.0489 250.907 52.0242 250.204 52.0191C246.594 51.9929 242.984 51.9937 239.374 52.0215C238.038 52.0318 236.635 52.0615 235.476 52.6642C234.62 53.1098 233.983 53.827 233.214 54.3883C231.209 55.8523 228.497 56.1502 226.057 56.9005C224.866 57.2073 223.785 57.7907 222.921 58.5928C222.109 59.4314 221.719 60.6782 222.229 61.6928C222.49 62.1157 222.782 62.5225 223.103 62.9106C224.542 64.9922 223.584 67.6923 223.799 70.1399C224.068 73.1962 229.067 78.1541 232.457 78.8774C237.93 80.045 234.768 72.5398 236.579 70.5335Z" fill="#2F2E41"/>
<path d="M229.833 218.744C230.21 221.127 230.693 223.517 230.564 225.92C230.383 229.274 229.017 232.506 228.764 235.857C228.575 238.36 229.012 240.89 228.619 243.374C228.368 244.965 227.782 246.498 227.419 248.072C226.845 250.636 226.861 253.277 227.467 255.836C228.073 258.394 229.256 260.819 230.945 262.963C231.194 263.33 231.547 263.633 231.969 263.841C232.374 263.973 232.807 264.024 233.237 263.989C237.502 263.912 241.755 263.57 245.966 262.965C246.274 262.954 246.566 262.84 246.783 262.646C246.878 262.517 246.939 262.371 246.961 262.219C247.741 258.666 245.961 255.104 245.508 251.507C245.025 247.667 246.066 243.818 247.099 240.063C247.568 238.211 248.153 236.384 248.853 234.59C249.352 233.382 249.955 232.208 250.388 230.98C251.001 229.052 251.375 227.07 251.502 225.07C251.802 221.914 251.962 218.751 251.98 215.58C252.082 212.576 251.799 209.571 251.138 206.623C250.188 202.89 248.243 199.424 246.315 196C245.284 196.219 244.317 196.626 243.474 197.195C240.99 198.62 238.396 199.888 235.712 200.992C233.908 201.733 230.391 202.26 229.246 203.805C228.117 205.329 228.845 208.439 228.932 210.12C229.08 213.005 229.38 215.88 229.833 218.744Z" fill="#2F2E41"/>
<path opacity="0.1" d="M229.833 218.744C230.21 221.127 230.693 223.517 230.564 225.92C230.383 229.274 229.017 232.506 228.764 235.857C228.575 238.36 229.012 240.89 228.619 243.374C228.368 244.965 227.782 246.498 227.419 248.072C226.845 250.636 226.861 253.277 227.467 255.836C228.073 258.394 229.256 260.819 230.945 262.963C231.194 263.33 231.547 263.633 231.969 263.841C232.374 263.973 232.807 264.024 233.237 263.989C237.502 263.912 241.755 263.57 245.966 262.965C246.274 262.954 246.566 262.84 246.783 262.646C246.878 262.517 246.939 262.371 246.961 262.219C247.741 258.666 245.961 255.104 245.508 251.507C245.025 247.667 246.066 243.818 247.099 240.063C247.568 238.211 248.153 236.384 248.853 234.59C249.352 233.382 249.955 232.208 250.388 230.98C251.001 229.052 251.375 227.07 251.502 225.07C251.802 221.914 251.962 218.751 251.98 215.58C252.082 212.576 251.799 209.571 251.138 206.623C250.188 202.89 248.243 199.424 246.315 196C245.284 196.219 244.317 196.626 243.474 197.195C240.99 198.62 238.396 199.888 235.712 200.992C233.908 201.733 230.391 202.26 229.246 203.805C228.117 205.329 228.845 208.439 228.932 210.12C229.08 213.005 229.38 215.88 229.833 218.744Z" fill="black"/>
<path d="M211.927 165C210.114 169.811 212.779 175.009 215.094 179.605C220.798 190.929 224.759 203.013 228.699 215.045C228.994 215.946 229.289 216.929 228.96 217.819C228.676 218.451 228.215 218.99 227.631 219.373C224.914 221.407 221.455 222.131 218.219 223.195C215.091 224.223 212.096 225.607 209.293 227.318C206.948 228.75 204.752 230.404 202.559 232.054L195.58 237.307C195.128 237.608 194.733 237.984 194.413 238.42C193.74 239.461 194.016 240.819 194.351 242.009C195.239 245.157 196.381 248.231 197.768 251.199C197.996 251.85 198.431 252.411 199.007 252.8C200.097 253.377 201.429 252.612 202.261 251.71C203.093 250.808 203.812 249.686 204.985 249.299C206.156 248.912 207.445 249.38 208.669 249.211C210.647 248.937 211.96 247.141 213.386 245.762C219.213 240.129 228.94 240.538 235.35 235.557C236.276 234.74 237.257 233.985 238.286 233.296C239.369 232.665 240.598 232.319 241.722 231.761C245.141 230.064 247.291 226.556 248.442 222.958C249.594 219.36 249.922 215.562 250.75 211.878C251.177 209.974 251.74 208.09 251.931 206.148C252.053 204.343 252.013 202.53 251.812 200.731L249.499 172.537C249.311 170.241 249.122 167.943 248.756 165.668C241.888 165.91 235.025 166.183 228.152 166.263C222.684 166.326 217.115 166.703 211.927 165Z" fill="#2F2E41"/>
<path d="M208.674 173.639C209.621 175.327 211.925 175.292 213.512 174.366C215.098 173.441 216.331 171.886 217.921 170.969C220.059 169.736 222.588 169.783 224.996 169.858C228.809 169.977 232.668 170.104 236.336 171.263C240.131 172.461 243.824 174.767 247.747 174.307C248.43 174.227 249.177 174.01 249.548 173.37C249.766 172.907 249.868 172.387 249.845 171.865L249.973 168.066C250.052 167.408 249.957 166.74 249.7 166.141C249.371 165.643 248.92 165.26 248.4 165.038C242.816 162.041 236.448 161.483 230.247 161.248C227.095 161.128 223.942 161.079 220.788 161.1C218.111 161.118 214.898 160.689 212.295 161.482C208.802 162.546 206.902 170.48 208.674 173.639Z" fill="#2F2E41"/>
<path d="M244.514 87.459C237.197 87.4015 230.567 83.1161 223.251 83.0117C222.367 82.9574 221.481 83.093 220.669 83.407C219.649 83.8627 218.979 84.7438 218.205 85.488C216.041 87.5667 212.909 88.6765 210.686 90.7055C208.603 92.6079 207.444 95.4423 208.266 97.9929C209.089 100.543 212.194 102.5 215.103 101.887C216.275 98.5206 218.693 95.6045 221.967 93.6109C223.67 92.6415 225.465 91.8054 227.332 91.112C230.62 89.79 234.297 88.4428 237.73 89.4337C238.996 89.8579 240.189 90.4356 241.277 91.1502L247 94.5617C246.333 92.2276 245.733 89.6099 244.514 87.459Z" fill="#0072FF"/>
<path d="M213.23 100.135C212.253 101.286 213.66 102.952 213.445 104.413C213.302 105.383 212.456 106.124 212.104 107.045C211.74 107.999 211.933 109.057 211.795 110.063C211.656 110.794 211.451 111.513 211.181 112.212C210.562 114.298 210.13 116.43 209.889 118.585L208.602 127.661C208.379 129.027 208.243 130.405 208.195 131.786C208.26 132.819 208.187 133.855 207.977 134.87C207.692 135.862 207.061 136.73 206.637 137.676C206.213 138.622 206.016 139.767 206.589 140.641C204.669 142.151 204.098 145.118 205.441 147.109C205.696 147.419 205.896 147.767 206.032 148.138C206.107 148.657 206.016 149.185 205.772 149.656L204.471 152.93C204.138 153.769 204.032 155.045 204.958 155.236C204.191 155.988 203.594 156.88 203.202 157.856C203.011 158.347 202.955 158.874 203.036 159.391C203.118 159.907 203.336 160.396 203.669 160.812C203.993 161.08 204.268 161.396 204.485 161.747C204.612 162.236 204.579 162.75 204.39 163.22C204.196 163.936 204.158 164.681 204.28 165.41C204.402 166.14 204.681 166.838 205.099 167.461C205.532 168.077 206.146 168.56 206.866 168.851C207.585 169.142 208.378 169.229 209.149 169.101C211.752 168.547 214.091 167.671 216.716 168.126C222.367 169.105 228.036 170.089 233.509 171.739C239.755 173.623 245.804 176.385 252.332 176.965C252.762 177.048 253.209 176.982 253.591 176.78C253.924 176.482 254.131 176.081 254.173 175.65C254.846 172.671 255.518 169.693 256.191 166.714C257.004 163.413 257.623 160.071 258.046 156.705C258.275 154.533 258.341 152.348 258.406 150.166L258.926 132.794C259.17 130.234 258.808 127.655 257.868 125.242L254.877 116.224C253.17 111.077 249.254 106.513 247.859 101.283C246.977 97.9726 246.325 94.4202 243.959 91.8402C240.585 88.162 234.748 87.5899 229.639 88.2223C227.332 88.508 225.004 89.001 223.007 90.1315C220.699 91.4387 218.998 93.4979 217.353 95.5097C215.997 97.1678 214.617 98.5008 213.23 100.135Z" fill="white"/>
<path d="M226.473 150.739C226.89 152.525 227.766 154.172 228.302 155.926C229.2 158.865 229.124 162.03 230.02 164.97C230.397 166.204 230.942 167.388 231.212 168.649C231.842 171.589 230.922 174.631 229.78 177.414C228.638 180.198 227.247 182.942 226.876 185.925C226.615 188.026 226.99 190.399 228.621 191.762C230.314 193.178 232.775 193.082 234.98 192.894C235.772 192.872 236.553 192.71 237.288 192.417C238.974 191.624 239.685 189.643 240.079 187.832C241.4 181.764 241.023 175.474 240.639 169.277L239.635 153.072C239.441 149.952 239.234 146.767 238.266 143.771C237.914 142.682 237.3 140.48 236.298 139.784C235.305 139.095 232.47 139.064 231.241 139.007C225.473 138.738 225.538 146.731 226.473 150.739Z" fill="#FBBEBE"/>
<path d="M231.951 93.3351C230.732 92.7382 229.195 92.9956 228.017 93.6602C226.879 94.3887 225.882 95.2935 225.07 96.3354C222.435 99.3423 219.646 102.793 220.037 106.662C220.183 108.113 220.778 109.487 221.18 110.894C222.947 117.068 220.994 123.597 221.218 129.984C221.347 133.674 222.206 137.304 223.061 140.909C223.236 141.645 223.516 142.497 224.277 142.745C224.849 142.931 225.466 142.691 226.032 142.49C228.141 141.762 230.406 141.519 232.636 141.781C234.866 142.044 236.996 142.805 238.845 144C240.259 143.295 239.729 141.064 239.412 139.596C238.47 135.232 239.748 130.73 241.301 126.522C242.854 122.313 244.711 118.11 244.969 113.665C245.26 108.629 243.474 103.712 241.712 98.9452C241.327 97.9046 240.907 96.8135 240.015 96.0946C239.251 95.5637 238.376 95.1899 237.447 94.9978C235.575 94.4805 233.68 94.1818 231.951 93.3351Z" fill="#2F2E41"/>
</svg>
