<svg width="1127" height="855" viewBox="0 0 1127 855" fill="none" xmlns="http://www.w3.org/2000/svg">
<rect width="1127" height="855" fill="rgba(255, 255, 255, 0)"/>
<path d="M551.5 762C701.445 762 823 751.703 823 739C823 726.297 701.445 716 551.5 716C401.555 716 280 726.297 280 739C280 751.703 401.555 762 551.5 762Z" fill="#3F3D56"/>
<path opacity="0.1" d="M551.5 753C678.802 753 782 745.837 782 737C782 728.163 678.802 721 551.5 721C424.198 721 321 728.163 321 737C321 745.837 424.198 753 551.5 753Z" fill="black"/>
<path d="M425.733 176L217 382L425.733 588L472.696 541.064L314.845 383.303L474 224.239L425.733 176Z" fill="#FF8863"/>
<path d="M700.455 187L910 393.5L700.455 600L653.309 552.95L811.778 394.806L652 235.356L700.455 187Z" fill="#FF8863"/>
<path d="M436.911 629.379C433.611 631.197 430.131 632.672 426.524 633.781C420.074 635.525 413.18 634.885 406.665 636.374C403.998 636.983 401.095 638.258 400.246 640.834C399.624 642.723 400.301 644.763 400.949 646.644C408.148 667.532 412.487 689.709 423.968 708.629C428.793 716.576 434.782 723.771 441.739 729.979C444.349 732.307 447.307 734.584 450.801 734.95C452.411 735.118 454.038 734.863 455.517 734.21C456.996 733.558 458.275 732.53 459.224 731.232C460.174 729.934 460.76 728.411 460.925 726.817C461.09 725.223 460.826 723.614 460.162 722.153C459.132 719.889 457.219 718.136 455.985 715.975C454.647 713.222 453.862 710.238 453.674 707.189C452.54 698.256 451.447 688.918 454.575 680.463C456.673 674.792 460.521 669.958 463.727 664.82C466.933 659.681 469.597 653.795 468.883 647.798C468.397 643.705 466.379 639.959 464.248 636.419C462.112 632.871 457.892 623.338 453.602 622.154C449.148 620.925 440.795 627.409 436.911 629.379Z" fill="#FF8863"/>
<path d="M556.777 702.916C556.845 705.024 556.555 707.128 555.92 709.137C554.555 712.797 551.169 715.306 549.419 718.794C546.986 723.645 548.088 729.509 549.701 734.701C550.711 737.956 552.037 741.343 554.751 743.357C557.072 744.818 559.712 745.676 562.437 745.857C585.721 749.129 609.372 747.252 632.868 747.937C637.15 748.062 641.684 748.214 645.422 746.089C649.16 743.964 651.471 738.621 648.929 735.12C646.646 731.975 642.132 732.005 638.289 731.819C628.283 731.303 618.753 727.317 611.292 720.526C609.821 719.25 608.545 717.758 607.506 716.1C606.706 714.628 606.043 713.085 605.525 711.489C602.231 702.429 598.313 693.616 593.799 685.115C592.535 682.736 591.105 680.258 588.756 678.985C587.037 678.191 585.172 677.778 583.284 677.772C577.428 677.386 562.264 675.363 557.735 679.987C553.551 684.259 556.869 697.489 556.777 702.916Z" fill="#FF8863"/>
<path d="M591 187C611.987 187 629 170.882 629 151C629 131.118 611.987 115 591 115C570.013 115 553 131.118 553 151C553 170.882 570.013 187 591 187Z" fill="#FBBEBE"/>
<path d="M558.883 181.269C556.775 186.854 553.201 192.099 548 195.105L597 205C595.223 197.92 594.989 190.546 596.313 183.37C596.799 181.632 596.899 179.812 596.606 178.032C595.685 174.513 591.683 172.819 588.102 172.011C579.159 169.993 571.251 168.91 562.94 165C560.4 169.305 560.756 176.305 558.883 181.269Z" fill="#FBBEBE"/>
<path d="M545.221 182.558C550.829 180.068 556.939 178.856 563.092 179.014C569.246 179.171 575.283 180.695 580.751 183.469C587.435 186.926 592.969 192.143 598.406 197.29C603.418 202.035 608.764 207.468 609.12 214.293C609.292 217.599 608.24 220.832 607.71 224.102C606.755 230.863 607.968 237.748 611.18 243.803C614.392 249.858 619.444 254.782 625.635 257.892C629.777 264.663 630.632 272.865 630.695 280.761C630.936 310.68 621.317 340.967 628.184 370.117C629.796 376.961 632.297 383.59 633.69 390.48C635.494 399.405 635.405 408.582 636.348 417.633C637.372 427.435 639.606 437.078 643 446.351C640.731 449.892 636.01 451.25 631.758 450.963C627.505 450.676 623.529 448.865 619.735 446.96C601.363 437.734 584.535 425.568 565.506 417.726C552.917 412.539 539.505 409.307 527.292 403.316C515.079 397.324 503.72 387.816 499.986 374.927C498.371 369.354 498.272 363.482 498.184 357.689C497.813 333.289 497.468 308.622 502.88 284.803C507.653 263.799 516.853 243.705 518.86 222.275C519.514 215.299 519.528 207.832 523.499 202.011C529.113 193.784 541.233 191.653 545.221 182.558Z" fill="#2F2E41"/>
<path d="M569.506 150.287C571.65 147.451 575.786 147.064 579.211 147.903C582.637 148.742 585.796 150.532 589.255 151.213C590.042 151.439 590.866 151.496 591.676 151.381C592.485 151.266 593.262 150.98 593.957 150.543C595.166 149.335 595.889 147.715 595.985 145.996C597.197 138.685 597.481 131.246 596.828 123.861C596.648 122.825 596.716 121.76 597.027 120.757C597.884 118.664 600.497 118.166 602.632 117.494C606.153 116.287 609.177 113.925 611.227 110.781C613.277 107.637 614.235 103.89 613.951 100.132C613.898 98.3293 613.151 96.6195 611.87 95.368C610.394 94.1484 608.328 94.0735 606.425 94.058C596.643 93.9783 586.86 93.9807 577.078 94.0652C573.457 94.0965 569.655 94.1868 566.516 96.0172C564.196 97.3705 562.47 99.5488 560.387 101.253C554.953 105.7 547.604 106.604 540.994 108.883C537.767 109.815 534.837 111.587 532.494 114.023C530.296 116.569 529.239 120.356 530.62 123.437C531.329 124.722 532.12 125.957 532.99 127.136C536.889 133.458 534.293 141.658 534.875 149.091C535.602 158.374 549.149 173.431 558.334 175.628C573.164 179.174 564.597 156.38 569.506 150.287Z" fill="#2F2E41"/>
<path d="M549.252 559.888C550.217 566.684 551.454 573.504 551.123 580.359C550.662 589.93 547.163 599.151 546.516 608.71C546.033 615.851 547.15 623.068 546.145 630.155C545.502 634.693 544.002 639.067 543.073 643.557C541.602 650.873 541.644 658.407 543.195 665.707C544.746 673.007 547.775 679.923 552.1 686.041C552.736 687.088 553.639 687.952 554.72 688.546C555.756 688.924 556.866 689.069 557.967 688.969C568.885 688.75 579.773 687.774 590.552 686.048C591.341 686.016 592.089 685.691 592.645 685.137C592.888 684.77 593.043 684.354 593.099 683.919C595.098 673.784 590.54 663.621 589.381 653.359C588.143 642.402 590.809 631.422 593.454 620.71C594.654 615.426 596.152 610.212 597.943 605.094C599.222 601.649 600.766 598.298 601.874 594.797C603.444 589.295 604.4 583.641 604.725 577.935C605.494 568.931 605.902 559.907 605.948 550.862C606.209 542.29 605.486 533.717 603.792 525.306C601.361 514.658 596.382 504.769 591.447 495C588.808 495.624 586.331 496.785 584.174 498.41C577.814 502.473 571.174 506.092 564.302 509.241C559.684 511.357 550.68 512.859 547.75 517.268C544.86 521.617 546.724 530.488 546.945 535.283C547.324 543.514 548.093 551.716 549.252 559.888Z" fill="#2F2E41"/>
<path opacity="0.1" d="M549.252 559.888C550.217 566.684 551.454 573.504 551.123 580.359C550.662 589.93 547.163 599.151 546.516 608.71C546.033 615.851 547.15 623.068 546.145 630.155C545.502 634.693 544.002 639.067 543.073 643.557C541.602 650.873 541.644 658.407 543.195 665.707C544.746 673.007 547.775 679.923 552.1 686.041C552.736 687.088 553.639 687.952 554.72 688.546C555.756 688.924 556.866 689.069 557.967 688.969C568.885 688.75 579.773 687.774 590.552 686.048C591.341 686.016 592.089 685.691 592.645 685.137C592.888 684.77 593.043 684.354 593.099 683.919C595.098 673.784 590.54 663.621 589.381 653.359C588.143 642.402 590.809 631.422 593.454 620.71C594.654 615.426 596.152 610.212 597.943 605.094C599.222 601.649 600.766 598.298 601.874 594.797C603.444 589.295 604.4 583.641 604.725 577.935C605.494 568.931 605.902 559.907 605.948 550.862C606.209 542.29 605.486 533.717 603.792 525.306C601.361 514.658 596.382 504.769 591.447 495C588.808 495.624 586.331 496.785 584.174 498.41C577.814 502.473 571.174 506.092 564.302 509.241C559.684 511.357 550.68 512.859 547.75 517.268C544.86 521.617 546.724 530.488 546.945 535.283C547.324 543.514 548.093 551.716 549.252 559.888Z" fill="black"/>
<path d="M500.525 414C495.618 427.338 502.832 441.752 509.099 454.497C524.54 485.895 535.262 519.4 545.927 552.76C546.726 555.259 547.524 557.985 546.634 560.452C545.865 562.205 544.616 563.7 543.035 564.762C535.681 570.4 526.318 572.408 517.558 575.358C509.092 578.21 500.984 582.047 493.397 586.792C487.05 590.762 481.103 595.346 475.169 599.922L456.277 614.487C455.054 615.322 453.985 616.366 453.119 617.573C451.297 620.459 452.043 624.226 452.95 627.524C455.353 636.254 458.446 644.776 462.2 653.007C462.818 654.811 463.994 656.367 465.555 657.445C468.503 659.045 472.11 656.924 474.362 654.423C476.613 651.922 478.561 648.811 481.735 647.737C484.906 646.665 488.395 647.963 491.706 647.494C497.061 646.735 500.617 641.755 504.477 637.932C520.248 622.312 546.58 623.445 563.929 609.635C566.437 607.369 569.092 605.276 571.876 603.368C574.809 601.617 578.135 600.657 581.179 599.11C590.434 594.405 596.253 584.678 599.37 574.702C602.487 564.725 603.375 554.193 605.615 543.98C606.773 538.699 608.297 533.476 608.813 528.093C609.144 523.086 609.036 518.06 608.49 513.072L602.23 434.897C601.72 428.532 601.209 422.16 600.22 415.853C581.628 416.524 563.05 417.279 544.447 417.501C529.645 417.678 514.57 418.722 500.525 414Z" fill="#2F2E41"/>
<path d="M490.829 433.5C493.399 437.84 499.653 437.75 503.96 435.371C508.267 432.991 511.613 428.994 515.929 426.635C521.73 423.465 528.595 423.584 535.131 423.778C545.48 424.085 555.956 424.411 565.913 427.39C576.212 430.47 586.237 436.402 596.886 435.218C598.739 435.013 600.765 434.455 601.774 432.809C602.365 431.617 602.643 430.281 602.579 428.939L602.927 419.168C603.14 417.479 602.883 415.76 602.186 414.221C601.293 412.94 600.068 411.955 598.657 411.383C583.5 403.677 566.215 402.242 549.385 401.637C540.831 401.329 532.272 401.203 523.71 401.257C516.444 401.304 507.722 400.2 500.658 402.238C491.178 404.975 486.02 425.376 490.829 433.5Z" fill="#2F2E41"/>
<path d="M587.306 192.612C567.607 192.436 549.756 179.354 530.059 179.036C527.679 178.87 525.295 179.284 523.108 180.242C520.363 181.633 518.559 184.323 516.474 186.595C510.65 192.94 502.216 196.328 496.233 202.522C490.623 208.329 487.503 216.982 489.717 224.768C491.932 232.554 500.292 238.526 508.123 236.654C511.278 226.379 517.79 217.477 526.603 211.391C531.189 208.432 536.022 205.88 541.047 203.763C549.9 199.727 559.799 195.615 569.041 198.64C572.45 199.935 575.663 201.698 578.591 203.88L594 214.294C592.205 207.169 590.59 199.178 587.306 192.612Z" fill="#6C63FF"/>
<path d="M505.218 229.952C502.621 233.17 506.363 237.833 505.79 241.919C505.41 244.633 503.16 246.705 502.224 249.283C501.254 251.953 501.768 254.911 501.4 257.726C501.031 259.773 500.485 261.785 499.768 263.738C498.12 269.576 496.97 275.54 496.329 281.569L492.905 306.963C492.311 310.784 491.949 314.638 491.822 318.503C491.995 321.392 491.8 324.29 491.243 327.131C490.485 329.906 488.806 332.334 487.677 334.981C486.548 337.629 486.024 340.832 487.55 343.275C482.441 347.502 480.921 355.802 484.494 361.372C485.174 362.24 485.706 363.212 486.069 364.251C486.266 365.704 486.025 367.182 485.375 368.498L481.913 377.659C481.027 380.004 480.746 383.575 483.21 384.11C481.169 386.215 479.579 388.709 478.536 391.441C478.03 392.813 477.879 394.289 478.097 395.734C478.314 397.179 478.893 398.546 479.781 399.711C480.641 400.461 481.374 401.343 481.95 402.325C482.289 403.693 482.201 405.131 481.699 406.448C481.182 408.449 481.082 410.534 481.406 412.574C481.73 414.615 482.472 416.568 483.585 418.313C484.738 420.035 486.371 421.386 488.285 422.2C490.199 423.015 492.31 423.258 494.361 422.901C501.287 421.349 507.51 418.9 514.493 420.173C529.529 422.913 544.613 425.665 559.175 430.282C575.796 435.552 591.889 443.28 609.259 444.902C610.402 445.134 611.591 444.951 612.608 444.385C613.494 443.552 614.044 442.428 614.157 441.222C615.947 432.889 617.736 424.556 619.526 416.223C621.689 406.986 623.337 397.638 624.461 388.22C625.072 382.142 625.246 376.03 625.42 369.924L626.804 321.323C627.452 314.16 626.49 306.944 623.988 300.195L616.029 274.963C611.487 260.563 601.068 247.794 597.358 233.162C595.01 223.901 593.276 213.962 586.979 206.744C578.003 196.453 562.473 194.853 548.88 196.622C542.739 197.421 536.546 198.801 531.234 201.963C525.092 205.621 520.567 211.382 516.19 217.01C512.582 221.649 508.91 225.379 505.218 229.952Z" fill="#FF8863"/>
<path d="M538.292 372.522C539.432 377.317 541.826 381.739 543.292 386.449C545.747 394.341 545.539 402.841 547.989 410.734C549.018 414.047 550.508 417.228 551.246 420.614C552.967 428.508 550.454 436.675 547.333 444.15C544.211 451.624 540.409 458.993 539.396 467.003C538.682 472.645 539.707 479.016 544.165 482.677C548.793 486.478 555.518 486.22 561.546 485.715C563.71 485.656 565.845 485.222 567.854 484.433C572.463 482.306 574.405 476.985 575.482 472.123C579.093 455.828 578.062 438.939 577.012 422.3L574.268 378.785C573.74 370.407 573.174 361.856 570.527 353.812C569.565 350.886 567.887 344.973 565.147 343.105C562.433 341.254 554.684 341.172 551.324 341.018C535.561 340.296 535.737 361.759 538.292 372.522Z" fill="#FBBEBE"/>
<path d="M555.072 211.927C551.902 210.276 547.908 210.988 544.844 212.825C541.885 214.839 539.294 217.341 537.182 220.222C530.331 228.535 523.08 238.073 524.096 248.773C524.477 252.784 526.022 256.58 527.069 260.473C531.662 277.54 526.583 295.591 527.166 313.249C527.503 323.453 529.736 333.489 531.96 343.455C532.414 345.489 533.141 347.844 535.12 348.529C536.606 349.043 538.212 348.382 539.684 347.826C545.166 345.812 551.055 345.14 556.853 345.866C562.651 346.593 568.188 348.697 572.996 352C576.672 350.05 575.295 343.884 574.471 339.823C572.022 327.759 575.346 315.313 579.383 303.678C583.419 292.043 588.249 280.423 588.918 268.133C589.676 254.208 585.032 240.617 580.45 227.437C579.45 224.56 578.357 221.543 576.038 219.556C574.053 218.088 571.778 217.055 569.363 216.523C564.496 215.093 559.568 214.267 555.072 211.927Z" fill="#2F2E41"/>
</svg>
