<svg width="877" height="733" viewBox="0 0 877 733" fill="none" xmlns="http://www.w3.org/2000/svg">
<g clip-path="url(#clip0)">
<path d="M313.935 265.946L229.065 216.946L180.065 301.817L264.935 350.817L313.935 265.946Z" fill="black"/>
<path d="M749.591 222.798C789.355 222.798 821.591 190.562 821.591 150.798C821.591 111.033 789.355 78.7979 749.591 78.7979C709.826 78.7979 677.591 111.033 677.591 150.798C677.591 190.562 709.826 222.798 749.591 222.798Z" fill="#00C6FF"/>
<path d="M705.567 50.9578C714.541 72.9624 737.38 84.4531 737.38 84.4531C737.38 84.4531 745.668 60.2675 736.694 38.2629C727.72 16.2583 704.881 4.76758 704.881 4.76758C704.881 4.76758 696.593 28.9532 705.567 50.9578Z" fill="#3F3D56"/>
<path d="M714.011 44.9457C732.946 59.3067 738.137 84.3404 738.137 84.3404C738.137 84.3404 712.631 86.0904 693.697 71.7295C674.763 57.3686 669.571 32.3348 669.571 32.3348C669.571 32.3348 695.077 30.5847 714.011 44.9457Z" fill="#00C6FF"/>
<path d="M740.982 38.3801C732.188 60.4575 740.675 84.5744 740.675 84.5744C740.675 84.5744 763.418 72.8967 772.212 50.8193C781.005 28.7419 772.519 4.625 772.519 4.625C772.519 4.625 749.775 16.3027 740.982 38.3801Z" fill="#3F3D56"/>
<path d="M751.235 39.9042C754.918 63.3813 741.299 85.0182 741.299 85.0182C741.299 85.0182 721.708 68.5911 718.025 45.114C714.342 21.6369 727.962 0 727.962 0C727.962 0 747.552 16.4271 751.235 39.9042Z" fill="#00C6FF"/>
<path d="M745.631 180.227C766.066 180.227 782.631 163.661 782.631 143.227C782.631 122.792 766.066 106.227 745.631 106.227C725.197 106.227 708.631 122.792 708.631 143.227C708.631 163.661 725.197 180.227 745.631 180.227Z" fill="#F2F2F2"/>
<path d="M730.089 144.908C736.717 144.908 742.089 139.536 742.089 132.908C742.089 126.281 736.717 120.908 730.089 120.908C723.462 120.908 718.089 126.281 718.089 132.908C718.089 139.536 723.462 144.908 730.089 144.908Z" fill="#3F3D56"/>
<path d="M855 594.882C850.649 594.882 846.395 593.592 842.777 591.174C839.16 588.757 836.34 585.321 834.675 581.301C833.01 577.281 832.574 572.857 833.423 568.59C834.272 564.322 836.367 560.402 839.444 557.325C842.52 554.249 846.44 552.153 850.708 551.305C854.976 550.456 859.399 550.891 863.419 552.557C867.439 554.222 870.875 557.041 873.292 560.659C875.71 564.277 877 568.531 877 572.882C876.993 578.715 874.673 584.307 870.549 588.431C866.425 592.555 860.833 594.875 855 594.882V594.882ZM855 552.882C851.044 552.882 847.178 554.055 843.889 556.252C840.6 558.45 838.036 561.574 836.522 565.228C835.009 568.883 834.613 572.904 835.384 576.784C836.156 580.663 838.061 584.227 840.858 587.024C843.655 589.821 847.219 591.726 851.098 592.498C854.978 593.269 858.999 592.873 862.654 591.359C866.308 589.846 869.432 587.282 871.629 583.993C873.827 580.704 875 576.837 875 572.882C874.994 567.579 872.885 562.496 869.136 558.746C865.386 554.997 860.303 552.888 855 552.882V552.882Z" fill="#3F3D56"/>
<path d="M267 367.882C262.649 367.882 258.395 366.592 254.777 364.174C251.16 361.757 248.34 358.321 246.675 354.301C245.01 350.281 244.574 345.857 245.423 341.59C246.272 337.322 248.367 333.402 251.444 330.326C254.52 327.249 258.44 325.153 262.708 324.305C266.976 323.456 271.399 323.891 275.419 325.556C279.439 327.222 282.875 330.041 285.292 333.659C287.71 337.277 289 341.531 289 345.882C288.993 351.715 286.673 357.307 282.549 361.431C278.425 365.555 272.833 367.875 267 367.882V367.882ZM267 325.882C263.044 325.882 259.178 327.055 255.889 329.252C252.6 331.45 250.036 334.574 248.522 338.228C247.009 341.883 246.613 345.904 247.384 349.784C248.156 353.663 250.061 357.227 252.858 360.024C255.655 362.821 259.219 364.726 263.098 365.498C266.978 366.269 270.999 365.873 274.654 364.359C278.308 362.846 281.432 360.282 283.629 356.993C285.827 353.704 287 349.837 287 345.882C286.994 340.579 284.885 335.496 281.136 331.746C277.386 327.997 272.303 325.888 267 325.882V325.882Z" fill="#3F3D56"/>
<path d="M795.538 161.519L678.561 292.079C684.85 296.958 690.068 303.081 693.888 310.064C697.708 317.048 700.05 324.744 700.767 332.672C701.484 340.6 700.561 348.59 698.055 356.146C695.55 363.702 691.515 370.661 686.203 376.589C680.891 382.518 674.416 387.29 667.179 390.607C659.943 393.924 652.101 395.716 644.143 395.871C636.184 396.025 628.278 394.54 620.918 391.507C613.559 388.473 606.902 383.957 601.364 378.239L438.421 560.102C485.4 596.614 543.225 616.394 602.724 616.305C750.889 616.305 871 496.193 871 348.029C871.09 278.405 844.017 211.492 795.538 161.519V161.519Z" fill="black"/>
<path d="M645 375.882C664.33 375.882 680 360.212 680 340.882C680 321.552 664.33 305.882 645 305.882C625.67 305.882 610 321.552 610 340.882C610 360.212 625.67 375.882 645 375.882Z" fill="black"/>
<path d="M461.966 105.751C480.623 105.751 495.747 90.6266 495.747 71.9701C495.747 53.3136 480.623 38.1895 461.966 38.1895C443.31 38.1895 428.186 53.3136 428.186 71.9701C428.186 90.6266 443.31 105.751 461.966 105.751Z" fill="#2F2E41"/>
<path d="M398.442 310.731L406.279 463.546C406.279 463.546 404.972 573.259 412.809 574.566C420.646 575.872 435.013 585.014 438.931 578.484C442.85 571.953 462.441 370.812 462.441 370.812C462.441 370.812 467.666 579.79 483.339 581.096C499.012 582.402 517.298 574.566 519.91 575.872C522.522 577.178 521.216 314.65 521.216 314.65L398.442 310.731Z" fill="#2F2E41"/>
<path d="M421.952 573.259C421.952 573.259 412.809 573.259 410.197 577.177C407.585 581.096 398.442 600.687 398.442 600.687C398.442 600.687 381.462 616.279 399.748 617.585C418.033 618.891 427.176 615.055 427.176 612.442C427.176 609.83 427.176 603.3 431.095 601.993C435.013 600.687 438.931 594.157 438.931 591.545C438.931 588.932 435.013 571.953 421.952 573.259Z" fill="#2F2E41"/>
<path d="M492.482 574.566C492.482 574.566 485.951 600.688 492.482 601.994C499.012 603.3 502.931 605.912 504.237 609.831C505.543 613.749 518.604 618.28 529.053 616.973C539.502 615.667 544.726 608.525 540.808 604.606C536.89 600.688 517.298 578.484 515.992 574.566C514.686 570.647 492.482 574.566 492.482 574.566Z" fill="#2F2E41"/>
<path d="M446.768 96.5297C446.768 96.5297 444.156 116.121 438.931 118.734C433.707 121.346 441.544 135.713 441.544 135.713L465.054 139.631L485.951 122.652C485.951 122.652 482.033 97.8358 482.033 96.5297C482.033 95.2236 446.768 96.5297 446.768 96.5297Z" fill="#FFB9B9"/>
<path d="M461.135 113.509C478.447 113.509 492.482 99.4743 492.482 82.1621C492.482 64.8498 478.447 50.8154 461.135 50.8154C443.823 50.8154 429.789 64.8498 429.789 82.1621C429.789 99.4743 443.823 113.509 461.135 113.509Z" fill="#FFB9B9"/>
<path d="M460.482 135.06C460.482 135.06 447.421 112.856 440.891 114.162C434.36 115.468 414.115 118.734 411.503 117.428C408.891 116.122 391.911 176.203 391.911 176.203C391.911 176.203 373.626 295.059 385.381 309.426C397.136 323.793 437.625 315.956 442.85 330.323C448.074 344.691 530.359 322.487 530.359 314.65C530.359 306.813 531.665 186.651 532.971 177.509C534.277 168.366 521.216 120.04 521.216 120.04C521.216 120.04 490.523 111.55 485.298 114.162C480.074 116.775 477.462 124.611 460.482 135.06Z" fill="#0075FF"/>
<path d="M414.115 121.345L411.503 117.427C411.503 117.427 384.075 121.345 376.238 120.039C368.401 118.733 344.891 121.345 344.891 121.345C344.891 121.345 350.116 106.978 355.34 105.672C360.565 104.366 367.095 100.447 367.095 100.447C367.095 100.447 354.034 80.8557 367.095 74.3252C367.095 74.3252 307.014 97.8352 303.096 120.039C299.177 142.243 394.523 176.202 394.523 176.202L414.115 121.345Z" fill="#0075FF"/>
<path d="M510.767 122.652L521.216 120.039L573.461 125.264L556.481 106.978C556.481 106.978 566.93 93.9173 560.4 87.3867C560.4 87.3867 629.623 113.509 621.787 130.488C613.95 147.468 531.665 177.508 527.747 178.814C523.828 180.121 510.767 122.652 510.767 122.652Z" fill="#0075FF"/>
<path d="M374.211 77.8425C377.444 78.4847 380.207 80.5044 382.853 82.4706C385.418 84.3032 387.878 86.2789 390.221 88.3882C402.099 99.4934 406.466 116.248 410.244 132.065C407.555 134.331 403.163 132.446 401.358 129.428C399.553 126.409 399.427 122.722 398.718 119.277C398.009 115.832 396.275 112.13 392.922 111.066C393.627 113.252 391.926 115.627 389.799 116.495C387.672 117.363 385.276 117.124 382.993 116.869C381.931 116.811 380.887 116.573 379.905 116.166C378.132 115.309 377.097 113.465 376.132 111.749C373.618 107.276 370.853 102.95 367.849 98.7895C367.168 97.7146 366.281 96.7853 365.238 96.0556C361.055 93.5016 356.562 90.1614 358.645 84.0984C360.365 79.0937 369.646 76.9359 374.211 77.8425Z" fill="#FFB9B9"/>
<path d="M547.867 85.6162C543.166 85.8504 539.113 88.9097 535.671 92.1195C521.265 105.646 511.989 123.744 509.421 143.338C509.254 144.651 509.201 146.198 510.207 147.059C511.338 148.028 513.203 147.454 514.132 146.291C514.947 145.038 515.456 143.612 515.62 142.126C516.533 137.685 518.091 133.401 520.244 129.41C521.349 127.363 522.883 125.208 525.18 124.846C528.601 124.306 531.159 127.93 534.427 129.077C538.284 130.431 542.604 128.006 544.949 124.658C547.294 121.31 548.21 117.205 549.502 113.327C550.793 109.45 552.708 105.473 556.233 103.405C559.987 101.202 568.628 99.6722 564.963 93.4913C562.301 88.9998 552.785 85.3712 547.867 85.6162Z" fill="#FFB9B9"/>
<path d="M427.184 64.8171C427.184 64.8171 418.854 43.1594 430.933 36.0791L434.265 45.6584C434.265 45.6584 464.669 27.3327 472.582 31.4976L465.085 41.4935C465.085 41.4935 500.487 41.4935 502.986 55.2377L490.491 55.6542C490.491 55.6542 503.819 64.4006 504.235 78.5613L477.58 80.2273L490.491 87.7242C490.491 87.7242 442.178 94.3881 430.516 75.2294L427.184 64.8171Z" fill="#2F2E41"/>
<path d="M346.851 89.3462L366.442 73.6729C366.442 73.6729 359.912 93.2645 366.442 99.795L341.626 105.019L346.851 89.3462Z" fill="#0075FF"/>
<path d="M575.42 98.4888L558.44 85.4277C558.44 85.4277 561.053 102.407 555.828 106.325C550.604 110.244 570.195 111.55 570.195 111.55L575.42 98.4888Z" fill="#0075FF"/>
<path d="M179.634 652.425C219.399 652.425 251.634 620.189 251.634 580.425C251.634 540.66 219.399 508.425 179.634 508.425C139.87 508.425 107.634 540.66 107.634 580.425C107.634 620.189 139.87 652.425 179.634 652.425Z" fill="#00C6FF"/>
<path d="M111.307 495.351C125.662 514.289 150.695 519.488 150.695 519.488C150.695 519.488 152.452 493.982 138.097 475.044C123.741 456.105 98.7089 450.906 98.7089 450.906C98.7089 450.906 96.9515 476.412 111.307 495.351Z" fill="#3F3D56"/>
<path d="M117.911 487.361C139.913 496.341 151.397 519.183 151.397 519.183C151.397 519.183 127.209 527.465 105.207 518.484C83.2054 509.504 71.7212 486.662 71.7212 486.662C71.7212 486.662 95.9092 478.38 117.911 487.361Z" fill="#00C6FF"/>
<path d="M142.269 474.049C139.479 497.649 153.909 518.754 153.909 518.754C153.909 518.754 172.863 501.596 175.653 477.996C178.443 454.396 164.013 433.291 164.013 433.291C164.013 433.291 145.059 450.449 142.269 474.049Z" fill="#3F3D56"/>
<path d="M152.568 472.872C162.192 494.6 154.626 519.021 154.626 519.021C154.626 519.021 131.456 508.214 121.832 486.486C112.208 464.758 119.774 440.337 119.774 440.337C119.774 440.337 142.944 451.144 152.568 472.872Z" fill="#00C6FF"/>
<path d="M151.853 621.134C172.288 621.134 188.853 604.568 188.853 584.134C188.853 563.699 172.288 547.134 151.853 547.134C131.418 547.134 114.853 563.699 114.853 584.134C114.853 604.568 131.418 621.134 151.853 621.134Z" fill="#F2F2F2"/>
<path d="M137.817 607.875C144.444 607.875 149.817 602.502 149.817 595.875C149.817 589.248 144.444 583.875 137.817 583.875C131.189 583.875 125.817 589.248 125.817 595.875C125.817 602.502 131.189 607.875 137.817 607.875Z" fill="#3F3D56"/>
<path d="M463 618.882C502.765 618.882 535 586.646 535 546.882C535 507.117 502.765 474.882 463 474.882C423.235 474.882 391 507.117 391 546.882C391 586.646 423.235 618.882 463 618.882Z" fill="#00C6FF"/>
<path d="M431.564 442.393C437.769 465.333 459.025 479.54 459.025 479.54C459.025 479.54 470.219 456.554 464.014 433.615C457.808 410.675 436.552 396.468 436.552 396.468C436.552 396.468 425.358 419.453 431.564 442.393Z" fill="#3F3D56"/>
<path d="M440.682 437.462C457.711 454.039 459.79 479.521 459.79 479.521C459.79 479.521 434.262 478.127 417.234 461.55C400.205 444.974 398.125 419.492 398.125 419.492C398.125 419.492 423.654 420.886 440.682 437.462Z" fill="#00C6FF"/>
<path d="M468.254 434.257C456.818 455.088 462.28 480.064 462.28 480.064C462.28 480.064 486.285 471.266 497.722 450.435C509.159 429.604 503.696 404.628 503.696 404.628C503.696 404.628 479.691 413.426 468.254 434.257Z" fill="#3F3D56"/>
<path d="M478.243 437.028C479.017 460.78 462.844 480.582 462.844 480.582C462.844 480.582 445.418 461.874 444.645 438.123C443.871 414.371 460.043 394.569 460.043 394.569C460.043 394.569 477.47 413.277 478.243 437.028Z" fill="#00C6FF"/>
<path d="M460 575.882C480.435 575.882 497 559.316 497 538.882C497 518.447 480.435 501.882 460 501.882C439.565 501.882 423 518.447 423 538.882C423 559.316 439.565 575.882 460 575.882Z" fill="#F2F2F2"/>
<path d="M460 529.882C466.627 529.882 472 524.509 472 517.882C472 511.254 466.627 505.882 460 505.882C453.373 505.882 448 511.254 448 517.882C448 524.509 453.373 529.882 460 529.882Z" fill="#3F3D56"/>
<path d="M662 616.882H287V618.882H662V616.882Z" fill="#2F2E41"/>
<path d="M813.5 200.882C824.822 200.882 834 193.718 834 184.882C834 176.045 824.822 168.882 813.5 168.882C802.178 168.882 793 176.045 793 184.882C793 193.718 802.178 200.882 813.5 200.882Z" fill="#00C6FF"/>
<path d="M247.139 522.914L279.927 496.656Z" fill="#3F3D56"/>
<path d="M249.237 543.149C259.146 535.141 269.404 527.593 280.011 520.505Z" fill="#3F3D56"/>
<path d="M271.107 541.018C282.688 535.511 293.254 528.084 302.357 519.052Z" fill="#3F3D56"/>
<path d="M189 648.882C198.941 648.882 207 640.823 207 630.882C207 620.941 198.941 612.882 189 612.882C179.059 612.882 171 620.941 171 630.882C171 640.823 179.059 648.882 189 648.882Z" fill="#3F3D56"/>
<path d="M99 732.81C153.676 732.81 198 727.469 198 720.882C198 714.294 153.676 708.954 99 708.954C44.3238 708.954 0 714.294 0 720.882C0 727.469 44.3238 732.81 99 732.81Z" fill="#F2F2F2"/>
<path d="M632 617.882C627.649 617.882 623.395 616.592 619.777 614.174C616.16 611.757 613.34 608.321 611.675 604.301C610.01 600.281 609.574 595.857 610.423 591.59C611.272 587.322 613.367 583.402 616.444 580.325C619.52 577.249 623.44 575.153 627.708 574.305C631.976 573.456 636.399 573.891 640.419 575.557C644.439 577.222 647.875 580.041 650.292 583.659C652.71 587.277 654 591.531 654 595.882C653.993 601.715 651.673 607.307 647.549 611.431C643.425 615.555 637.833 617.875 632 617.882V617.882ZM632 575.882C628.044 575.882 624.178 577.055 620.889 579.252C617.6 581.45 615.036 584.574 613.522 588.228C612.009 591.883 611.613 595.904 612.384 599.784C613.156 603.663 615.061 607.227 617.858 610.024C620.655 612.821 624.219 614.726 628.098 615.498C631.978 616.269 635.999 615.873 639.654 614.359C643.308 612.846 646.432 610.282 648.629 606.993C650.827 603.704 652 599.837 652 595.882C651.994 590.579 649.885 585.496 646.136 581.746C642.386 577.997 637.303 575.888 632 575.882V575.882Z" fill="#3F3D56"/>
</g>
<defs>
<clipPath id="clip0">
<rect width="877" height="732.809" fill="white"/>
</clipPath>
</defs>
</svg>
