<svg width="100" height="100" viewBox="0 0 100 100" fill="none" xmlns="http://www.w3.org/2000/svg">
<path d="M34.1875 10L4 41.4815L34.1875 72.963L40.9796 65.7901L18.1506 41.6806L41.1681 17.372L34.1875 10Z" fill="white"/>
<path d="M70.5312 13.8887L100 44.9072L70.5312 75.9257L63.9009 68.8583L86.1867 45.1034L63.7168 21.1523L70.5312 13.8887Z" fill="white"/>
<path d="M32.1676 79.8525C31.7444 80.1355 31.298 80.3651 30.8355 80.5378C30.0082 80.8093 29.124 80.7097 28.2884 80.9414C27.9463 81.0363 27.574 81.2347 27.4652 81.6357C27.3854 81.9299 27.4722 82.2475 27.5553 82.5403C28.4786 85.7923 29.0352 89.245 30.5076 92.1906C31.1265 93.4278 31.8945 94.5479 32.7868 95.5145C33.1216 95.8769 33.5009 96.2315 33.9491 96.2884C34.1556 96.3146 34.3642 96.2749 34.5539 96.1732C34.7436 96.0716 34.9076 95.9117 35.0294 95.7096C35.1511 95.5076 35.2264 95.2704 35.2475 95.0223C35.2686 94.7741 35.2348 94.5236 35.1496 94.2961C35.0176 93.9437 34.7722 93.6707 34.6139 93.3343C34.4423 92.9057 34.3416 92.4411 34.3175 91.9664C34.172 90.5756 34.0319 89.1219 34.4331 87.8056C34.7021 86.9227 35.1957 86.17 35.6069 85.37C36.0181 84.5701 36.3597 83.6537 36.2682 82.72C36.2058 82.0828 35.947 81.4996 35.6737 80.9484C35.3998 80.3961 34.8585 78.9119 34.3082 78.7275C33.7371 78.5362 32.6657 79.5458 32.1676 79.8525Z" fill="white"/>
<path d="M49.0821 91.0928C49.0921 91.4227 49.0494 91.752 48.9558 92.0663C48.7544 92.6392 48.2549 93.0318 47.9969 93.5776C47.638 94.3368 47.8006 95.2545 48.0384 96.067C48.1875 96.5764 48.383 97.1065 48.7834 97.4215C49.1257 97.6502 49.515 97.7846 49.917 97.8128C53.3511 98.3249 56.8396 98.0311 60.305 98.1384C60.9366 98.1579 61.6053 98.1818 62.1567 97.8492C62.708 97.5166 63.0489 96.6805 62.6739 96.1325C62.3371 95.6405 61.6714 95.645 61.1046 95.616C59.6287 95.5353 58.2232 94.9114 57.1227 93.8487C56.9057 93.649 56.7175 93.4155 56.5642 93.156C56.4464 92.9257 56.3486 92.6842 56.2721 92.4344C55.7863 91.0166 55.2083 89.6374 54.5426 88.3071C54.3562 87.9348 54.1452 87.547 53.7989 87.3478C53.5453 87.2236 53.2702 87.1589 52.9917 87.1579C52.128 87.0976 49.8914 86.7809 49.2235 87.5045C48.6064 88.1732 49.0958 90.2436 49.0821 91.0928Z" fill="white"/>
<path d="M54.4248 13.8889C57.6017 13.8889 60.177 11.4016 60.177 8.33339C60.177 5.26514 57.6017 2.77783 54.4248 2.77783C51.248 2.77783 48.6726 5.26514 48.6726 8.33339C48.6726 11.4016 51.248 13.8889 54.4248 13.8889Z" fill="#FBBEBE"/>
<path d="M49.36 12.8212C49.0555 13.7262 48.5391 14.5761 47.7876 15.0631L54.8672 16.6665C54.6105 15.5193 54.5766 14.3245 54.768 13.1616C54.8383 12.8801 54.8527 12.5851 54.8104 12.2968C54.6772 11.7265 54.099 11.452 53.5817 11.3211C52.2896 10.994 51.1469 10.8187 49.9462 10.1851C49.5792 10.8827 49.6305 12.0169 49.36 12.8212Z" fill="#FBBEBE"/>
<path d="M47.3365 13.4837C48.1237 13.1192 48.9814 12.9418 49.8452 12.9649C50.709 12.988 51.5564 13.211 52.324 13.6171C53.2622 14.123 54.039 14.8867 54.8022 15.6402C55.5057 16.3347 56.2562 17.1299 56.3061 18.1289C56.3303 18.6129 56.1827 19.0862 56.1082 19.5648C55.9742 20.5545 56.1445 21.5624 56.5954 22.4486C57.0462 23.3349 57.7554 24.0557 58.6245 24.511C59.2058 25.502 59.3258 26.7027 59.3347 27.8585C59.3685 32.2379 58.0183 36.6713 58.9822 40.9382C59.2085 41.9401 59.5595 42.9104 59.7551 43.919C60.0083 45.2254 59.9958 46.5687 60.1283 47.8936C60.272 49.3283 60.5855 50.7399 61.062 52.0972C60.7435 52.6155 60.0808 52.8142 59.4839 52.7723C58.887 52.7303 58.3289 52.4652 57.7962 52.1863C55.2173 50.8358 52.8551 49.055 50.184 47.9072C48.4168 47.1478 46.5342 46.6748 44.8198 45.7978C43.1054 44.9208 41.511 43.5289 40.9868 41.6423C40.7602 40.8265 40.7462 39.967 40.7338 39.119C40.6817 35.5473 40.6333 31.9367 41.393 28.4502C42.063 25.3756 43.3545 22.4343 43.6362 19.2974C43.7279 18.2763 43.7299 17.1832 44.2874 16.3312C45.0754 15.1269 46.7767 14.815 47.3365 13.4837Z" fill="#2F2E41"/>
<path d="M50.9596 7.62697C51.2759 7.24269 51.8858 7.19028 52.3911 7.30395C52.8964 7.41762 53.3623 7.66021 53.8725 7.75238C53.9885 7.78306 54.1101 7.79083 54.2295 7.77521C54.3489 7.75959 54.4635 7.72091 54.5659 7.66166C54.7443 7.49801 54.851 7.2784 54.8652 7.04554C55.0439 6.05481 55.0857 5.04683 54.9895 4.04622C54.9629 3.90584 54.973 3.76157 55.0189 3.62559C55.1452 3.34199 55.5306 3.27449 55.8454 3.18351C56.3648 3.01997 56.8109 2.69991 57.1132 2.27387C57.4155 1.84783 57.5569 1.3401 57.515 0.830877C57.5071 0.586628 57.3969 0.354941 57.2081 0.185372C56.9904 0.0201123 56.6857 0.00996079 56.4049 0.00785891C54.9621 -0.00293467 53.5193 -0.0026104 52.0765 0.00883318C51.5424 0.0130697 50.9816 0.0253144 50.5187 0.273337C50.1764 0.456713 49.9219 0.751869 49.6146 0.982859C48.8133 1.58531 47.7293 1.7079 46.7543 2.01667C46.2784 2.14293 45.8462 2.38302 45.5007 2.71309C45.1765 3.05817 45.0206 3.57129 45.2242 3.98882C45.3288 4.16284 45.4455 4.33025 45.5738 4.48994C46.1489 5.3466 45.766 6.45775 45.8519 7.46497C45.9591 8.72271 47.9571 10.763 49.3119 11.0607C51.4992 11.5411 50.2355 8.45258 50.9596 7.62697Z" fill="#2F2E41"/>
<path d="M48.7904 69.7857C48.9238 70.7913 49.0949 71.8003 49.0491 72.8146C48.9853 74.2306 48.5015 75.5949 48.4121 77.0094C48.3453 78.0658 48.4998 79.1337 48.3608 80.1822C48.2718 80.8537 48.0644 81.5009 47.936 82.1652C47.7326 83.2477 47.7383 84.3623 47.9528 85.4424C48.1673 86.5225 48.5862 87.5458 49.1842 88.451C49.2721 88.6059 49.397 88.7337 49.5464 88.8215C49.6898 88.8776 49.8432 88.899 49.9954 88.8842C51.505 88.8518 53.0107 88.7074 54.5011 88.452C54.6102 88.4473 54.7136 88.3991 54.7905 88.3172C54.8241 88.2629 54.8456 88.2013 54.8533 88.137C55.1296 86.6374 54.4994 85.1338 54.3392 83.6155C54.168 81.9943 54.5366 80.3697 54.9024 78.7848C55.0682 78.003 55.2755 77.2316 55.5231 76.4742C55.6999 75.9645 55.9134 75.4688 56.0667 74.9507C56.2837 74.1367 56.4159 73.3002 56.4608 72.4559C56.5672 71.1237 56.6236 69.7885 56.63 68.4502C56.6661 67.182 56.5661 65.9136 56.3319 64.6691C55.9957 63.0936 55.3073 61.6305 54.6248 60.1851C54.26 60.2774 53.9174 60.4492 53.6192 60.6896C52.7398 61.2908 51.8216 61.8263 50.8714 62.2921C50.2329 62.6051 48.9878 62.8275 48.5826 63.4798C48.183 64.1232 48.4408 65.4357 48.4714 66.1452C48.5238 67.3631 48.6301 68.5766 48.7904 69.7857Z" fill="#2F2E41"/>
<path opacity="0.1" d="M48.7904 69.7857C48.9238 70.7913 49.0949 71.8003 49.0491 72.8146C48.9853 74.2306 48.5015 75.5949 48.4121 77.0094C48.3453 78.0658 48.4998 79.1337 48.3608 80.1822C48.2718 80.8537 48.0644 81.5009 47.936 82.1652C47.7326 83.2477 47.7383 84.3623 47.9528 85.4424C48.1673 86.5225 48.5862 87.5458 49.1842 88.451C49.2721 88.6059 49.397 88.7337 49.5464 88.8215C49.6898 88.8776 49.8432 88.899 49.9954 88.8842C51.505 88.8518 53.0107 88.7074 54.5011 88.452C54.6102 88.4473 54.7136 88.3991 54.7905 88.3172C54.8241 88.2629 54.8456 88.2013 54.8533 88.137C55.1296 86.6374 54.4994 85.1338 54.3392 83.6155C54.168 81.9943 54.5366 80.3697 54.9024 78.7848C55.0682 78.003 55.2755 77.2316 55.5231 76.4742C55.6999 75.9645 55.9134 75.4688 56.0667 74.9507C56.2837 74.1367 56.4159 73.3002 56.4608 72.4559C56.5672 71.1237 56.6236 69.7885 56.63 68.4502C56.6661 67.182 56.5661 65.9136 56.3319 64.6691C55.9957 63.0936 55.3073 61.6305 54.6248 60.1851C54.26 60.2774 53.9174 60.4492 53.6192 60.6896C52.7398 61.2908 51.8216 61.8263 50.8714 62.2921C50.2329 62.6051 48.9878 62.8275 48.5826 63.4798C48.183 64.1232 48.4408 65.4357 48.4714 66.1452C48.5238 67.3631 48.6301 68.5766 48.7904 69.7857Z" fill="black"/>
<path d="M41.3512 47.2222C40.6597 49.2468 41.6762 51.4347 42.5594 53.3692C44.7352 58.1353 46.2462 63.2209 47.7491 68.2847C47.8616 68.664 47.9741 69.0779 47.8486 69.4523C47.7403 69.7184 47.5643 69.9453 47.3415 70.1065C46.3052 70.9624 44.9858 71.2672 43.7514 71.7149C42.5584 72.1478 41.4159 72.7303 40.3467 73.4504C39.4523 74.0531 38.6143 74.7489 37.778 75.4434L35.1158 77.6544C34.9435 77.781 34.7929 77.9395 34.6709 78.1228C34.4141 78.5608 34.5193 79.1327 34.6471 79.6332C34.9856 80.9584 35.4215 82.252 35.9505 83.5014C36.0376 83.7752 36.2033 84.0114 36.4232 84.175C36.8388 84.4178 37.347 84.0958 37.6643 83.7162C37.9816 83.3367 38.2561 82.8643 38.7034 82.7014C39.1501 82.5386 39.6419 82.7357 40.1085 82.6645C40.8631 82.5493 41.3641 81.7934 41.9081 81.213C44.1305 78.8421 47.8411 79.0141 50.2858 76.9178C50.6392 76.5739 51.0134 76.2561 51.4058 75.9665C51.8191 75.7008 52.2878 75.555 52.7166 75.3202C54.0208 74.606 54.8408 73.1296 55.28 71.6152C55.7192 70.1009 55.8445 68.5023 56.1601 66.9519C56.3233 66.1504 56.5381 65.3576 56.6107 64.5405C56.6573 63.7805 56.6421 63.0175 56.5652 62.2604L55.683 50.3941C55.6112 49.428 55.5393 48.4608 55.3998 47.5034C52.7799 47.6053 50.1619 47.7199 47.5405 47.7536C45.4546 47.7804 43.3304 47.939 41.3512 47.2222Z" fill="#2F2E41"/>
<path d="M40.0786 51.2219C40.4376 52.0033 41.3116 51.9872 41.9133 51.5588C42.5151 51.1304 42.9827 50.4106 43.5859 49.9859C44.3964 49.4152 45.3556 49.4366 46.2689 49.4715C47.715 49.5268 49.1788 49.5856 50.5701 50.1219C52.0091 50.6765 53.41 51.7444 54.8979 51.5313C55.1568 51.4943 55.4399 51.3938 55.5808 51.0975C55.6634 50.8829 55.7023 50.6424 55.6934 50.4007L55.742 48.6417C55.7718 48.3375 55.7359 48.028 55.6385 47.7509C55.5136 47.5202 55.3425 47.3429 55.1454 47.2399C53.0275 45.8526 50.6122 45.5943 48.2606 45.4853C47.0653 45.4299 45.8694 45.4071 44.673 45.4169C43.6578 45.4253 42.439 45.2265 41.452 45.5936C40.1273 46.0862 39.4066 49.7594 40.0786 51.2219Z" fill="#2F2E41"/>
<path d="M53.9081 14.7013C51.0857 14.6789 48.528 13.0081 45.7059 12.9674C45.3649 12.9463 45.0233 12.9991 44.71 13.1215C44.3167 13.2992 44.0582 13.6427 43.7594 13.9329C42.925 14.7433 41.7166 15.176 40.8593 15.967C40.0555 16.7087 39.6085 17.8137 39.9258 18.8081C40.2431 19.8024 41.4409 20.5652 42.5629 20.3261C43.015 19.0138 43.948 17.8769 45.2107 17.0997C45.8678 16.7218 46.5602 16.3958 47.2802 16.1255C48.5486 15.6101 49.967 15.0848 51.2912 15.4712C51.7795 15.6366 52.24 15.8618 52.6595 16.1404L54.8672 17.4704C54.61 16.5604 54.3787 15.5399 53.9081 14.7013Z" fill="white"/>
<path d="M41.9328 19.8651C41.5625 20.3438 42.0959 21.0374 42.0143 21.645C41.96 22.0487 41.6394 22.357 41.5059 22.7404C41.3676 23.1376 41.441 23.5775 41.3885 23.9962C41.3359 24.3007 41.258 24.5999 41.1558 24.8906C40.9209 25.7588 40.757 26.646 40.6657 27.5427L40.1776 31.3199C40.0929 31.8883 40.0414 32.4616 40.0232 33.0364C40.0478 33.4661 40.0201 33.8973 39.9407 34.3197C39.8327 34.7325 39.5934 35.0936 39.4324 35.4875C39.2714 35.8813 39.1968 36.3577 39.4142 36.7212C38.6859 37.3498 38.4694 38.5844 38.9786 39.4128C39.0756 39.5419 39.1514 39.6866 39.2031 39.8412C39.2312 40.0572 39.1968 40.2771 39.1042 40.4728L38.6107 41.8355C38.4844 42.1843 38.4445 42.7154 38.7957 42.795C38.5048 43.1081 38.2781 43.479 38.1294 43.8854C38.0573 44.0895 38.0357 44.309 38.0667 44.524C38.0977 44.7389 38.1803 44.9423 38.3069 45.1156C38.4295 45.2271 38.5339 45.3584 38.616 45.5044C38.6643 45.7079 38.6518 45.9217 38.5803 46.1177C38.5065 46.4153 38.4923 46.7254 38.5385 47.0289C38.5847 47.3324 38.6904 47.6229 38.8491 47.8825C39.0135 48.1386 39.2463 48.3395 39.5191 48.4607C39.7919 48.5819 40.0928 48.6181 40.3851 48.5649C41.3724 48.3341 42.2595 47.9699 43.2549 48.1591C45.3981 48.5667 47.5482 48.976 49.624 49.6628C51.9931 50.4466 54.2871 51.5961 56.7631 51.8374C56.926 51.8719 57.0954 51.8446 57.2405 51.7604C57.3667 51.6366 57.4451 51.4694 57.4613 51.2901C57.7164 50.0506 57.9715 48.8111 58.2266 47.5716C58.5349 46.1977 58.7698 44.8072 58.93 43.4064C59.0171 42.5023 59.0419 41.5932 59.0667 40.685L59.2639 33.4558C59.3563 32.3904 59.2192 31.317 58.8625 30.3132L57.728 26.5601C57.0806 24.4183 55.5955 22.519 55.0667 20.3425C54.732 18.965 54.4848 17.4867 53.5873 16.413C52.3078 14.8824 50.094 14.6443 48.1564 14.9074C47.2811 15.0263 46.3983 15.2315 45.6411 15.702C44.7656 16.2459 44.1206 17.1029 43.4966 17.9401C42.9824 18.6301 42.459 19.1848 41.9328 19.8651Z" fill="#BABABA"/>
<path d="M47.0978 40.9423C47.27 41.6772 47.6318 42.3548 47.8532 43.0767C48.2242 44.2862 48.1927 45.5888 48.5629 46.7986C48.7183 47.3063 48.9435 47.7938 49.055 48.3127C49.3151 49.5226 48.9354 50.7742 48.4637 51.9197C47.9921 53.0652 47.4177 54.1946 47.2646 55.4222C47.1567 56.2868 47.3116 57.2631 47.9851 57.8242C48.6844 58.4068 49.7005 58.3673 50.6112 58.2898C50.9381 58.2808 51.2608 58.2143 51.5643 58.0934C52.2607 57.7674 52.5541 56.9519 52.7169 56.2068C53.2625 53.7095 53.1066 51.1211 52.948 48.5711L52.5334 41.9021C52.4536 40.6182 52.3681 39.3077 51.9682 38.0749C51.8228 37.6264 51.5693 36.7202 51.1553 36.4339C50.7453 36.1503 49.5745 36.1376 49.0668 36.1141C46.6851 36.0034 46.7118 39.2928 47.0978 40.9423Z" fill="#FBBEBE"/>
<path d="M48.9012 17.7266C48.4265 17.4882 47.8283 17.591 47.3694 17.8565C46.9263 18.1475 46.5383 18.5088 46.2219 18.925C45.196 20.126 44.11 21.5041 44.2621 23.0498C44.3192 23.6293 44.5506 24.1778 44.7074 24.7402C45.3952 27.2059 44.6347 29.8137 44.7219 32.3648C44.7724 33.8389 45.1068 35.2888 45.4399 36.7287C45.5078 37.0226 45.6167 37.3627 45.9131 37.4617C46.1358 37.536 46.3763 37.4404 46.5966 37.3601C47.4176 37.0691 48.2996 36.972 49.1679 37.077C50.0363 37.182 50.8655 37.4859 51.5856 37.9631C52.1361 37.6814 51.9298 36.7906 51.8064 36.2039C51.4397 34.461 51.9375 32.6629 52.542 30.982C53.1466 29.3011 53.8699 27.6223 53.9701 25.8468C54.0836 23.8351 53.3881 21.8715 52.7019 19.9674C52.5521 19.5518 52.3884 19.1159 52.0411 18.8288C51.7438 18.6168 51.4031 18.4675 51.0414 18.3907C50.3125 18.1841 49.5746 18.0648 48.9012 17.7266Z" fill="#2F2E41"/>
</svg>
