<svg width="1096" height="759" viewBox="0 0 1096 759" fill="none" xmlns="http://www.w3.org/2000/svg">
<g clip-path="url(#clip0)">
<path opacity="0.14" d="M952 395H836V300H952V395Z" fill="#0F0B56"/>
<path opacity="0.48" d="M335.284 326.707C425.224 333.433 391.568 513.549 456.812 508.85C522.056 504.151 530.601 368.665 601.662 372.05C672.723 375.435 669.078 515.238 741.055 522.394C813.032 529.55 800.369 479.017 849.08 504.034C897.791 529.051 935.898 622.462 935.898 622.462H250.947C250.947 622.462 245.347 319.98 335.284 326.707Z" fill="url(#paint0_linear)"/>
<path d="M941.041 243.958H820.776C816.357 243.958 812.776 247.54 812.776 251.958V419.499C812.776 423.917 816.357 427.499 820.776 427.499H941.041C945.459 427.499 949.041 423.917 949.041 419.499V251.958C949.041 247.54 945.459 243.958 941.041 243.958Z" fill="#00D3FF"/>
<path d="M953.483 229.961H833.218C828.8 229.961 825.218 233.543 825.218 237.961V405.502C825.218 409.92 828.8 413.502 833.218 413.502H953.483C957.902 413.502 961.483 409.92 961.483 405.502V237.961C961.483 233.543 957.902 229.961 953.483 229.961Z" fill="white"/>
<path opacity="0.14" d="M881.45 246.084H835.565V285.017H881.45V246.084Z" fill="#0F0B56"/>
<path opacity="0.14" d="M950.973 246.084H887.985V271.112H950.973V246.084Z" fill="#0F0B56"/>
<path opacity="0.14" d="M950.973 276.674H887.985V285.017H950.973V276.674Z" fill="#0F0B56"/>
<path opacity="0.14" d="M950.973 299.463H835.565V311.977H950.973V299.463Z" fill="#0F0B56"/>
<path opacity="0.14" d="M950.973 326.469H835.565V338.983H950.973V326.469Z" fill="#0F0B56"/>
<path opacity="0.14" d="M950.973 353.476H835.565V365.99H950.973V353.476Z" fill="#0F0B56"/>
<path d="M940.109 252.864H977.317C978.106 252.864 978.863 253.178 979.422 253.736C979.98 254.294 980.294 255.052 980.294 255.841V306.441C980.294 307.231 979.98 307.988 979.422 308.546C978.863 309.104 978.106 309.418 977.317 309.418L959.159 300.788L940.109 309.421C939.718 309.421 939.33 309.344 938.969 309.195C938.608 309.045 938.28 308.826 938.003 308.549C937.727 308.273 937.508 307.945 937.358 307.583C937.209 307.222 937.132 306.835 937.132 306.444V255.841C937.132 255.052 937.445 254.294 938.003 253.736C938.562 253.178 939.319 252.864 940.109 252.864Z" fill="#1BA84A"/>
<path d="M1002.7 234.655L999.176 228.555C998.706 227.742 998.459 226.819 998.459 225.88V218.835C998.459 217.896 998.211 216.973 997.742 216.16C997.272 215.347 996.597 214.671 995.784 214.202L989.684 210.682C988.871 210.212 988.195 209.537 987.726 208.724L984.206 202.624C983.735 201.812 983.06 201.138 982.247 200.669C981.434 200.201 980.512 199.954 979.574 199.955H972.532C971.593 199.955 970.67 199.707 969.857 199.238L963.757 195.717C962.943 195.247 962.021 195 961.082 195C960.143 195 959.22 195.247 958.407 195.717L952.313 199.232C951.499 199.701 950.577 199.949 949.638 199.949H942.593C941.654 199.949 940.731 200.196 939.918 200.665C939.105 201.135 938.429 201.81 937.96 202.624L934.44 208.724C933.97 209.537 933.295 210.212 932.482 210.682L926.382 214.202C925.57 214.672 924.896 215.348 924.427 216.161C923.959 216.974 923.712 217.896 923.713 218.834V225.876C923.712 226.817 923.463 227.741 922.991 228.555L919.47 234.655C919 235.468 918.753 236.391 918.753 237.33C918.753 238.269 919 239.192 919.47 240.005L922.99 246.105C923.459 246.918 923.707 247.841 923.707 248.78V255.815C923.707 256.754 923.954 257.677 924.424 258.49C924.893 259.303 925.568 259.978 926.382 260.448L932.482 263.968C933.295 264.438 933.97 265.113 934.44 265.926L937.96 272.026C938.429 272.839 939.105 273.515 939.918 273.984C940.731 274.454 941.654 274.701 942.593 274.701H949.635C950.575 274.7 951.499 274.947 952.313 275.417L958.413 278.937C959.226 279.406 960.149 279.654 961.088 279.654C962.027 279.654 962.949 279.406 963.763 278.937L969.863 275.417C970.676 274.947 971.599 274.7 972.538 274.7H979.58C980.519 274.7 981.441 274.453 982.255 273.983C983.068 273.514 983.743 272.838 984.213 272.025L987.733 265.925C988.202 265.112 988.878 264.437 989.691 263.967L995.791 260.447C996.604 259.977 997.279 259.302 997.749 258.489C998.218 257.676 998.466 256.753 998.466 255.814V248.773C998.466 247.834 998.713 246.911 999.183 246.098L1002.7 239.998C1003.17 239.185 1003.42 238.263 1003.42 237.326C1003.41 236.388 1003.17 235.467 1002.7 234.655ZM961.083 269.426C954.734 269.426 948.528 267.543 943.249 264.016C937.97 260.489 933.856 255.476 931.426 249.61C928.997 243.745 928.361 237.29 929.599 231.064C930.838 224.837 933.895 219.117 938.385 214.628C942.874 210.139 948.594 207.081 954.82 205.843C961.047 204.604 967.501 205.24 973.367 207.669C979.232 210.099 984.246 214.213 987.773 219.492C991.3 224.771 993.183 230.977 993.183 237.326C993.183 245.839 989.801 254.004 983.781 260.024C977.761 266.044 969.596 269.426 961.083 269.426Z" fill="#50D97E"/>
<path d="M961.083 204.968C954.683 204.968 948.427 206.866 943.106 210.421C937.785 213.977 933.638 219.03 931.189 224.943C928.74 230.855 928.099 237.361 929.347 243.638C930.596 249.914 933.678 255.68 938.203 260.205C942.728 264.73 948.494 267.812 954.77 269.06C961.047 270.309 967.553 269.668 973.465 267.219C979.378 264.77 984.431 260.623 987.987 255.302C991.542 249.981 993.44 243.725 993.44 237.325C993.43 228.747 990.018 220.522 983.952 214.456C977.886 208.39 969.661 204.978 961.083 204.968Z" fill="#50D97E"/>
<path d="M961.083 209.107C955.502 209.107 950.046 210.762 945.406 213.863C940.766 216.964 937.15 221.371 935.015 226.527C932.879 231.683 932.32 237.357 933.409 242.83C934.498 248.304 937.186 253.332 941.132 257.278C945.079 261.225 950.106 263.912 955.58 265.001C961.054 266.089 966.727 265.531 971.883 263.395C977.039 261.259 981.447 257.642 984.547 253.002C987.648 248.361 989.302 242.906 989.302 237.325C989.293 229.843 986.318 222.671 981.028 217.381C975.738 212.091 968.564 209.115 961.083 209.107Z" stroke="white" stroke-width="2"/>
<g opacity="0.49">
<path opacity="0.49" d="M931.124 313.848L932.536 318.292L936.715 320.643L932.536 320.644L930.703 325.77L929.362 320.833L924.831 319.188L929.573 318.293L931.124 313.848Z" fill="#3474D0"/>
<path opacity="0.49" d="M932.367 292.748L933.189 295.334L935.621 296.702L933.188 296.7L932.123 299.685L931.342 296.812L928.706 295.855L931.466 295.334L932.367 292.748Z" fill="#3474D0"/>
<path opacity="0.49" d="M941.062 297.793L943.298 304.831L949.915 308.554L943.299 308.555L940.394 316.674L938.272 308.854L931.1 306.246L938.606 304.832L941.062 297.793Z" fill="#3474D0"/>
</g>
<g opacity="0.56">
<path opacity="0.56" d="M787.553 200.131L791.717 213.234L804.037 220.165H791.722L786.319 235.279L782.365 220.723L769 215.873L782.981 213.236L787.553 200.131Z" fill="#1658B7"/>
<path opacity="0.56" d="M805.734 236.984L804.283 241.1L806.08 245.212L802.958 242.858L798.699 245.654L800.48 241.209L798.023 237.425L802.07 239.43L805.734 236.984Z" fill="#1658B7"/>
</g>
<g opacity="0.17">
<path opacity="0.17" d="M1014.91 179.501H990.578C987.816 179.501 985.578 181.74 985.578 184.501V192.876C985.578 195.637 987.816 197.876 990.578 197.876H1014.91C1017.67 197.876 1019.91 195.637 1019.91 192.876V184.501C1019.91 181.74 1017.67 179.501 1014.91 179.501Z" fill="#C7DCFB"/>
<path opacity="0.17" d="M1014.91 204.645H990.578C987.816 204.645 985.578 206.884 985.578 209.645V218.02C985.578 220.781 987.816 223.02 990.578 223.02H1014.91C1017.67 223.02 1019.91 220.781 1019.91 218.02V209.645C1019.91 206.884 1017.67 204.645 1014.91 204.645Z" fill="#C7DCFB"/>
<path opacity="0.17" d="M1014.91 229.79H990.578C987.816 229.79 985.578 232.029 985.578 234.79V243.165C985.578 245.926 987.816 248.165 990.578 248.165H1014.91C1017.67 248.165 1019.91 245.926 1019.91 243.165V234.79C1019.91 232.029 1017.67 229.79 1014.91 229.79Z" fill="#C7DCFB"/>
<path opacity="0.17" d="M1055.53 204.645H1031.2C1028.43 204.645 1026.2 206.884 1026.2 209.645V218.02C1026.2 220.781 1028.43 223.02 1031.2 223.02H1055.53C1058.29 223.02 1060.53 220.781 1060.53 218.02V209.645C1060.53 206.884 1058.29 204.645 1055.53 204.645Z" fill="#C7DCFB"/>
<path opacity="0.17" d="M1055.53 229.79H1031.2C1028.43 229.79 1026.2 232.029 1026.2 234.79V243.165C1026.2 245.926 1028.43 248.165 1031.2 248.165H1055.53C1058.29 248.165 1060.53 245.926 1060.53 243.165V234.79C1060.53 232.029 1058.29 229.79 1055.53 229.79Z" fill="#C7DCFB"/>
<path opacity="0.17" d="M1096.15 229.79H1071.81C1069.05 229.79 1066.81 232.029 1066.81 234.79V243.165C1066.81 245.926 1069.05 248.165 1071.81 248.165H1096.15C1098.91 248.165 1101.15 245.926 1101.15 243.165V234.79C1101.15 232.029 1098.91 229.79 1096.15 229.79Z" fill="#C7DCFB"/>
<path opacity="0.17" d="M1055.53 254.934H1031.2C1028.43 254.934 1026.2 257.173 1026.2 259.934V268.309C1026.2 271.071 1028.43 273.309 1031.2 273.309H1055.53C1058.29 273.309 1060.53 271.071 1060.53 268.309V259.934C1060.53 257.173 1058.29 254.934 1055.53 254.934Z" fill="#C7DCFB"/>
</g>
<path d="M671.03 706.292C694.854 725.455 711.053 765.685 711.053 765.685L614.56 851.454L491.662 713.191C491.662 713.191 500.748 679.46 527.459 681.373C554.17 683.285 562.722 711.38 585.606 712.573C608.49 713.766 607.345 695.107 618.996 686.143C630.647 677.18 647.207 687.129 671.03 706.292Z" fill="#000229"/>
<path d="M1045.24 701.782C1065.87 697.482 1081.8 707.582 1087.06 721.982C1092.33 736.372 1082.62 757.932 1082.62 757.932L839 757.212V708.092C839 708.092 855.614 698.062 864.923 704.792C874.232 711.522 865.496 745.042 881.251 742.752C897.006 740.452 928.944 683.452 958.591 685.032C988.238 686.602 976.208 733.872 985.66 736.302C995.112 738.742 1024.62 706.082 1045.24 701.782Z" fill="#22E9DE"/>
<path d="M779.102 660.007C793.056 660.307 797.996 685.662 806.49 687.222C814.984 688.782 817.584 676.995 829.718 684.275C841.854 691.555 835.784 731.427 838.384 734.894C840.984 738.361 846.964 728.61 853.464 734.894C859.964 741.178 870.624 757.255 864.384 760.029C858.144 762.803 796.263 762.976 787.596 760.029C778.929 757.082 791.236 746.335 787.596 741.308C783.956 736.281 755.571 710.842 752.407 690.171C749.243 669.5 765.148 659.707 779.102 660.007Z" fill="#234D89"/>
<path opacity="0.26" d="M945.651 714.136C957.124 721.602 966.89 731.408 974.312 742.91C985.878 761.387 991.912 788.045 991.912 788.045" stroke="white"/>
<path opacity="0.26" d="M991.916 736.534C991.916 736.534 986.216 741.934 986.216 754.814C986.216 767.694 991.916 788.044 991.916 788.044" stroke="white"/>
<path d="M245.363 506.298C245.363 506.298 258.273 510.77 261.498 526.909C264.723 543.047 254.957 548.831 258.244 570.86C259.904 581.985 276.44 588.72 281.189 607.907C285.36 624.766 254.472 621.812 252.513 648.256C250.554 674.7 270.649 669.386 274.306 700.86C277.963 732.335 282.125 757.481 267.143 774.156C252.161 790.831 160.42 778.058 160.42 778.058C160.42 778.058 141.215 776.62 136.604 698.566C135.301 676.474 168.246 695.867 168.742 665.654C169.09 644.504 161.589 643.888 158.293 617.05C155.064 590.757 177.518 586.629 190.588 568.469C198.457 557.532 201.567 532.628 215.269 517.086C228.971 501.544 245.363 506.298 245.363 506.298Z" fill="#234D89"/>
<g opacity="0.1">
<path opacity="0.1" d="M233.68 600.47C233.68 600.47 213.095 604.587 206.234 647.47C199.373 690.353 206.234 772.007 206.234 772.007" stroke="white"/>
<path opacity="0.1" d="M206.233 655.362C206.233 655.362 216.525 645.413 226.818 640.262C233.261 637.123 240.251 635.26 247.402 634.777" stroke="white"/>
<path opacity="0.1" d="M206.233 747.994C206.233 747.994 216.525 738.045 226.818 732.894C233.261 729.755 240.251 727.892 247.402 727.409" stroke="white"/>
<path opacity="0.1" d="M175.3 694.103C186.707 692.587 202.917 695.875 202.917 695.875" stroke="white"/>
</g>
<path d="M339.595 617.47C339.595 617.47 351.483 639.34 352.605 679.154C353.727 718.968 344.081 776.727 344.081 776.727" stroke="#22E9DE" stroke-width="3"/>
<path d="M371.311 643.668C381.363 636.362 392.466 634.5 396.108 639.511C399.75 644.522 394.552 654.509 384.5 661.815C374.449 669.121 356.993 668.186 355.295 666.545C353.598 664.904 361.259 650.974 371.311 643.668Z" fill="#22E9DE"/>
<path d="M377.529 699.501C395.258 686.615 415.15 683.761 421.958 693.128C428.766 702.495 419.911 720.535 402.182 733.421C384.453 746.307 352.98 743.72 349.842 740.627C346.703 737.533 359.799 712.388 377.529 699.501Z" fill="#22E9DE"/>
<path d="M316.749 752.096C306.094 743.467 301.564 731.397 306.634 725.137C311.703 718.877 324.452 720.797 335.107 729.426C345.763 738.054 348.382 758.613 346.83 761.247C345.278 763.88 327.405 760.725 316.749 752.096Z" fill="#22E9DE"/>
<path d="M302.553 691.847C286.771 679.067 280.064 661.189 287.57 651.92C295.077 642.65 313.958 645.494 329.741 658.275C345.524 671.056 349.407 701.5 347.103 705.404C344.8 709.309 318.336 704.628 302.553 691.847Z" fill="#22E9DE"/>
<path d="M330.91 642.13C323.977 639.469 319.624 634.01 321.188 629.936C322.752 625.863 329.639 624.718 336.572 627.38C343.505 630.041 348.295 640.193 347.935 641.81C347.576 643.428 337.843 644.791 330.91 642.13Z" fill="#22E9DE"/>
<path d="M340.257 599.372C343.245 591.159 348.604 585.578 352.23 586.898C355.857 588.217 356.377 595.937 353.389 604.15C350.4 612.363 340.69 618.977 339.231 618.751C337.771 618.526 337.27 607.581 340.257 599.372Z" fill="#22E9DE"/>
<path d="M576.257 439.865C610.717 422.302 655.181 420.965 693.642 437.42C732.103 453.875 724.989 517.566 724.989 517.566H556.026C553.709 506.618 552.784 495.422 553.271 484.243C554.113 467.531 559.268 448.524 576.257 439.865Z" fill="white"/>
<path d="M621.441 403.009H653.901C653.762 407.034 654.401 411.048 655.783 414.831C658.018 420.356 662.141 427.486 661.434 428.918C660.727 430.35 653.313 434.709 642.14 435.39C630.967 436.071 618.74 431.302 617.44 429.39C616.14 427.478 621.028 420.781 622.38 414.827C623.12 410.874 622.795 406.796 621.441 403.009Z" fill="#EEA671"/>
<path d="M791.81 624.565H494.741C485.338 624.565 477.715 632.188 477.715 641.591C477.715 650.994 485.338 658.616 494.741 658.616H791.81C801.214 658.616 808.836 650.994 808.836 641.591C808.836 632.188 801.214 624.565 791.81 624.565Z" fill="#2E37A5"/>
<path d="M514.604 482.489H764.068C766.72 482.489 769.262 483.543 771.138 485.418C773.013 487.294 774.068 489.837 774.068 492.489V632.178C774.068 634.83 773.013 637.374 771.138 639.249C769.262 641.125 766.72 642.178 764.068 642.178H514.604C511.952 642.178 509.409 641.125 507.533 639.249C505.658 637.374 504.604 634.83 504.604 632.178V492.489C504.604 489.837 505.658 487.294 507.533 485.418C509.409 483.543 511.952 482.489 514.604 482.489Z" fill="#272F95"/>
<path d="M771.829 482.489H522.366C516.843 482.489 512.366 486.966 512.366 492.489V632.178C512.366 637.701 516.843 642.178 522.366 642.178H771.829C777.352 642.178 781.829 637.701 781.829 632.178V492.489C781.829 486.966 777.352 482.489 771.829 482.489Z" fill="#1C237B"/>
<path d="M619.809 341.444C619.809 341.444 666.28 336.431 671.614 342.593C676.948 348.755 670.226 372.206 668.453 389.595C666.679 406.984 667.163 405.983 662.834 413.181C658.505 420.38 652.732 423.362 642.212 423.591C631.691 423.82 622.722 414.592 617.046 407.751C611.371 400.911 613.357 386.142 611.064 383.401C608.77 380.66 604.957 378.574 603.166 373.2C601.375 367.827 600.825 363.617 603.906 361.901C606.986 360.186 613.696 369.109 616.067 365.661C618.438 362.213 619.809 341.444 619.809 341.444Z" fill="#FEC194"/>
<path d="M605.249 328.993C605.249 328.993 607.738 312.091 629.445 308.705C651.151 305.318 667.567 320.003 670.009 321.713C672.451 323.424 667.664 326.219 669.632 326.704C671.6 327.189 674.654 322.544 677.883 323.652C681.113 324.761 682.181 329.562 681.698 332.042C681.214 334.522 676.509 344.279 671.377 347.821C666.246 351.362 661.875 352.383 649.891 351.503C637.906 350.623 629.448 339.996 623.436 344.3C617.424 348.603 618.783 366.734 615.348 367.528C611.913 368.322 606.745 361.434 603.863 363.017C600.981 364.6 603.362 370.867 601.746 369.468C598.852 366.964 591.639 353.687 592.518 343.563C593.398 333.439 605.249 328.993 605.249 328.993Z" fill="#E70276"/>
<path d="M612.116 385.899C612.116 385.899 613.844 381.259 617.717 383.459C621.591 385.659 619.139 393.508 627.612 394.7C636.085 395.893 640.948 388.172 651.611 388.226C662.274 388.28 666.127 391.965 667.782 394.333C669.437 396.7 665.465 410.611 663.829 412.537C662.194 414.464 654.695 426.489 638.803 423.742C627.58 421.805 615.716 408.74 614.089 402.055C612.658 398.144 612.116 385.899 612.116 385.899Z" fill="#0B0744"/>
<path d="M638.315 399.301C640.263 395.927 645.007 394.737 647.884 394.214C650.761 393.691 655.94 393.457 658.793 396.412C660.062 397.664 660.817 399.345 660.911 401.125C661.004 402.905 660.428 404.656 659.297 406.034C657.15 408.367 655.009 405.327 650.208 405.746C645.406 406.165 643.068 409.321 640.094 407.709C637.119 406.097 636.367 402.675 638.315 399.301Z" fill="#FEC194"/>
</g>
<defs>
<linearGradient id="paint0_linear" x1="593.388" y1="326.597" x2="593.388" y2="622.462" gradientUnits="userSpaceOnUse">
<stop stop-color="#326CA7"/>
<stop offset="1" stop-color="#180C46"/>
</linearGradient>
<clipPath id="clip0">
<rect width="1096" height="759" fill="white"/>
</clipPath>
</defs>
</svg>
