<svg width="1096" height="759" viewBox="0 0 1096 759" fill="none" xmlns="http://www.w3.org/2000/svg">
<path opacity="0.2" d="M161.432 397.235C228.068 358.502 313.695 362.514 362.038 311.282C429.87 239.398 473.694 125.764 556.031 92.494C697.02 35.524 889.341 206.058 998.867 138.1C1062.07 98.888 1100.97 0 1100.97 0V785.073H20.8615C20.8615 785.073 -59.8695 793.373 96.2955 668.09C252.461 542.807 1.24751 490.344 161.432 397.235Z" fill="black"/>
<path opacity="0.48" d="M335.284 326.707C425.224 333.433 391.568 513.549 456.812 508.85C522.056 504.151 530.601 368.665 601.662 372.05C672.723 375.435 669.078 515.238 741.055 522.394C813.032 529.55 800.369 479.017 849.08 504.034C897.791 529.051 935.898 622.462 935.898 622.462H250.947C250.947 622.462 245.347 319.98 335.284 326.707Z" fill="url(#paint0_linear)"/>
<path d="M891.638 138.631H771.373C766.954 138.631 763.373 142.213 763.373 146.631V314.172C763.373 318.59 766.954 322.172 771.373 322.172H891.638C896.056 322.172 899.638 318.59 899.638 314.172V146.631C899.638 142.213 896.056 138.631 891.638 138.631Z" fill="#00D3FF"/>
<path d="M904.079 124.634H783.814C779.396 124.634 775.814 128.216 775.814 132.634V300.175C775.814 304.593 779.396 308.175 783.814 308.175H904.079C908.498 308.175 912.079 304.593 912.079 300.175V132.634C912.079 128.216 908.498 124.634 904.079 124.634Z" fill="white"/>
<path opacity="0.14" d="M832.047 140.757H786.162V179.69H832.047V140.757Z" fill="#0F0B56"/>
<path opacity="0.14" d="M901.57 140.757H838.582V165.785H901.57V140.757Z" fill="#0F0B56"/>
<path opacity="0.14" d="M901.57 171.347H838.582V179.69H901.57V171.347Z" fill="#0F0B56"/>
<path opacity="0.14" d="M901.57 194.136H786.162V206.65H901.57V194.136Z" fill="#0F0B56"/>
<path opacity="0.14" d="M901.57 221.142H786.162V233.656H901.57V221.142Z" fill="#0F0B56"/>
<path opacity="0.14" d="M901.57 248.148H786.162V260.662H901.57V248.148Z" fill="#0F0B56"/>
<path opacity="0.14" d="M901.57 275.154H786.162V287.668H901.57V275.154Z" fill="#0F0B56"/>
<path d="M890.706 147.537H927.914C928.703 147.537 929.46 147.851 930.019 148.409C930.577 148.967 930.891 149.725 930.891 150.514V201.114C930.891 201.904 930.577 202.661 930.019 203.219C929.46 203.777 928.703 204.091 927.914 204.091L909.756 195.461L890.706 204.094C890.315 204.094 889.927 204.017 889.566 203.868C889.205 203.718 888.877 203.499 888.6 203.222C888.324 202.946 888.105 202.618 887.955 202.256C887.806 201.895 887.729 201.508 887.729 201.117V150.514C887.729 149.725 888.042 148.967 888.6 148.409C889.159 147.851 889.916 147.537 890.706 147.537V147.537Z" fill="#1BA84A"/>
<path d="M953.293 129.328L949.773 123.228C949.303 122.415 949.056 121.492 949.056 120.553V113.508C949.056 112.569 948.808 111.646 948.339 110.833C947.869 110.02 947.194 109.344 946.381 108.875L940.281 105.355C939.468 104.885 938.792 104.21 938.323 103.397L934.803 97.2969C934.332 96.4849 933.657 95.8109 932.844 95.3424C932.031 94.874 931.109 94.6276 930.171 94.6279H923.129C922.19 94.628 921.267 94.3807 920.454 93.9109L914.354 90.3899C913.54 89.9205 912.618 89.6733 911.679 89.6733C910.74 89.6733 909.817 89.9205 909.004 90.3899L902.91 93.9049C902.096 94.3747 901.174 94.622 900.235 94.6219H893.19C892.251 94.622 891.328 94.8692 890.515 95.3388C889.702 95.8083 889.026 96.4837 888.557 97.2969L885.037 103.397C884.567 104.21 883.892 104.885 883.079 105.355L876.979 108.875C876.167 109.345 875.493 110.021 875.024 110.834C874.556 111.647 874.309 112.569 874.31 113.507V120.549C874.309 121.49 874.06 122.414 873.588 123.228L870.067 129.328C869.597 130.141 869.35 131.064 869.35 132.003C869.35 132.942 869.597 133.865 870.067 134.678L873.587 140.778C874.056 141.591 874.304 142.514 874.304 143.453V150.488C874.304 151.427 874.551 152.35 875.021 153.163C875.49 153.976 876.165 154.651 876.979 155.121L883.079 158.641C883.892 159.111 884.567 159.786 885.037 160.599L888.557 166.699C889.026 167.512 889.702 168.188 890.515 168.657C891.328 169.127 892.251 169.374 893.19 169.374H900.232C901.172 169.373 902.096 169.62 902.91 170.09L909.01 173.61C909.823 174.079 910.746 174.327 911.685 174.327C912.624 174.327 913.546 174.079 914.36 173.61L920.46 170.09C921.273 169.62 922.196 169.373 923.135 169.373H930.177C931.116 169.373 932.038 169.126 932.852 168.656C933.665 168.187 934.34 167.511 934.81 166.698L938.33 160.598C938.799 159.785 939.475 159.11 940.288 158.64L946.388 155.12C947.201 154.65 947.876 153.975 948.346 153.162C948.815 152.349 949.063 151.426 949.063 150.487V143.446C949.063 142.507 949.31 141.584 949.78 140.771L953.3 134.671C953.767 133.858 954.013 132.936 954.012 131.999C954.01 131.061 953.762 130.14 953.293 129.328V129.328ZM911.68 164.099C905.331 164.099 899.125 162.216 893.846 158.689C888.567 155.162 884.453 150.149 882.023 144.283C879.594 138.418 878.958 131.963 880.196 125.737C881.435 119.51 884.492 113.79 888.982 109.301C893.471 104.812 899.191 101.754 905.417 100.516C911.644 99.2772 918.098 99.9128 923.964 102.342C929.829 104.772 934.843 108.886 938.37 114.165C941.897 119.444 943.78 125.65 943.78 131.999C943.78 140.512 940.398 148.677 934.378 154.697C928.358 160.717 920.193 164.099 911.68 164.099V164.099Z" fill="#50D97E"/>
<path d="M911.68 99.6411C905.28 99.6411 899.024 101.539 893.703 105.094C888.382 108.65 884.235 113.703 881.786 119.616C879.337 125.528 878.696 132.034 879.944 138.311C881.193 144.587 884.275 150.353 888.8 154.878C893.325 159.403 899.091 162.485 905.367 163.733C911.644 164.982 918.15 164.341 924.062 161.892C929.975 159.443 935.028 155.296 938.584 149.975C942.139 144.654 944.037 138.398 944.037 131.998C944.027 123.42 940.615 115.195 934.549 109.129C928.483 103.063 920.258 99.6509 911.68 99.6411V99.6411Z" fill="#50D97E"/>
<path d="M911.68 103.78C906.099 103.78 900.643 105.435 896.003 108.536C891.363 111.637 887.746 116.044 885.611 121.2C883.475 126.356 882.916 132.03 884.005 137.503C885.094 142.977 887.782 148.005 891.728 151.951C895.675 155.898 900.702 158.585 906.176 159.674C911.65 160.762 917.324 160.204 922.48 158.068C927.636 155.932 932.043 152.315 935.143 147.675C938.244 143.034 939.899 137.579 939.899 131.998C939.89 124.516 936.914 117.344 931.624 112.054C926.334 106.764 919.161 103.788 911.68 103.78Z" stroke="white" stroke-width="2"/>
<g opacity="0.49">
<path opacity="0.49" d="M931.124 313.848L932.536 318.292L936.715 320.643L932.536 320.644L930.703 325.77L929.362 320.833L924.831 319.188L929.573 318.293L931.124 313.848Z" fill="#3474D0"/>
<path opacity="0.49" d="M932.367 292.748L933.189 295.334L935.621 296.702L933.188 296.7L932.123 299.685L931.342 296.812L928.706 295.855L931.466 295.334L932.367 292.748Z" fill="#3474D0"/>
<path opacity="0.49" d="M941.062 297.793L943.298 304.831L949.915 308.554L943.299 308.555L940.394 316.674L938.272 308.854L931.1 306.246L938.606 304.832L941.062 297.793Z" fill="#3474D0"/>
</g>
<g opacity="0.56">
<path opacity="0.56" d="M738.15 94.804L742.314 107.907L754.634 114.838L742.319 114.838L736.916 129.952L732.962 115.396L719.597 110.546L733.578 107.909L738.15 94.804Z" fill="#1658B7"/>
<path opacity="0.56" d="M756.331 131.658L754.88 135.774L756.677 139.886L753.555 137.532L749.296 140.328L751.077 135.883L748.62 132.099L752.667 134.104L756.331 131.658Z" fill="#1658B7"/>
</g>
<g opacity="0.17">
<path opacity="0.17" d="M1014.91 179.501H990.578C987.816 179.501 985.578 181.74 985.578 184.501V192.876C985.578 195.637 987.816 197.876 990.578 197.876H1014.91C1017.67 197.876 1019.91 195.637 1019.91 192.876V184.501C1019.91 181.74 1017.67 179.501 1014.91 179.501Z" fill="#C7DCFB"/>
<path opacity="0.17" d="M1014.91 204.645H990.578C987.816 204.645 985.578 206.884 985.578 209.645V218.02C985.578 220.781 987.816 223.02 990.578 223.02H1014.91C1017.67 223.02 1019.91 220.781 1019.91 218.02V209.645C1019.91 206.884 1017.67 204.645 1014.91 204.645Z" fill="#C7DCFB"/>
<path opacity="0.17" d="M1014.91 229.79H990.578C987.816 229.79 985.578 232.029 985.578 234.79V243.165C985.578 245.926 987.816 248.165 990.578 248.165H1014.91C1017.67 248.165 1019.91 245.926 1019.91 243.165V234.79C1019.91 232.029 1017.67 229.79 1014.91 229.79Z" fill="#C7DCFB"/>
<path opacity="0.17" d="M1055.53 204.645H1031.2C1028.43 204.645 1026.2 206.884 1026.2 209.645V218.02C1026.2 220.781 1028.43 223.02 1031.2 223.02H1055.53C1058.29 223.02 1060.53 220.781 1060.53 218.02V209.645C1060.53 206.884 1058.29 204.645 1055.53 204.645Z" fill="#C7DCFB"/>
<path opacity="0.17" d="M1055.53 229.79H1031.2C1028.43 229.79 1026.2 232.029 1026.2 234.79V243.165C1026.2 245.926 1028.43 248.165 1031.2 248.165H1055.53C1058.29 248.165 1060.53 245.926 1060.53 243.165V234.79C1060.53 232.029 1058.29 229.79 1055.53 229.79Z" fill="#C7DCFB"/>
<path opacity="0.17" d="M1096.15 229.79H1071.81C1069.05 229.79 1066.81 232.029 1066.81 234.79V243.165C1066.81 245.926 1069.05 248.165 1071.81 248.165H1096.15C1098.91 248.165 1101.15 245.926 1101.15 243.165V234.79C1101.15 232.029 1098.91 229.79 1096.15 229.79Z" fill="#C7DCFB"/>
<path opacity="0.17" d="M1055.53 254.934H1031.2C1028.43 254.934 1026.2 257.173 1026.2 259.934V268.309C1026.2 271.071 1028.43 273.309 1031.2 273.309H1055.53C1058.29 273.309 1060.53 271.071 1060.53 268.309V259.934C1060.53 257.173 1058.29 254.934 1055.53 254.934Z" fill="#C7DCFB"/>
</g>
<path d="M1034.53 641.365C1064.68 636.289 1105.51 650.909 1105.51 650.909V780.011H920.522C920.522 780.011 901.347 750.811 920.522 732.117C939.697 713.423 966.377 725.696 982.472 709.385C998.567 693.074 983.86 681.533 984.901 666.87C985.942 652.207 1004.38 646.44 1034.53 641.365Z" fill="#000229"/>
<path d="M1049.55 573.385C1045.25 552.761 1055.35 536.827 1069.75 531.564C1084.14 526.301 1105.7 536.004 1105.7 536.004L1104.98 779.627H1055.86C1055.86 779.627 1045.83 763.013 1052.56 753.704C1059.29 744.395 1092.81 753.131 1090.52 737.376C1088.22 721.621 1031.22 689.683 1032.8 660.036C1034.37 630.389 1081.64 642.419 1084.07 632.967C1086.51 623.515 1053.85 594.01 1049.55 573.385Z" fill="#22E9DE"/>
<path d="M945.588 677.718C959.542 678.018 964.482 703.373 972.976 704.933C981.47 706.493 984.07 694.706 996.204 701.986C1008.34 709.266 1002.27 749.138 1004.87 752.605C1007.47 756.072 1013.45 746.321 1019.95 752.605C1026.45 758.889 1037.11 774.966 1030.87 777.74C1024.63 780.514 962.749 780.687 954.082 777.74C945.415 774.793 957.722 764.046 954.082 759.019C950.442 753.992 922.057 728.553 918.893 707.882C915.729 687.211 931.634 677.418 945.588 677.718Z" fill="#234D89"/>
<path opacity="0.26" d="M945.651 714.136C957.124 721.602 966.89 731.408 974.312 742.91C985.878 761.387 991.912 788.045 991.912 788.045" stroke="white"/>
<path opacity="0.26" d="M991.916 736.534C991.916 736.534 986.216 741.934 986.216 754.814C986.216 767.694 991.916 788.044 991.916 788.044" stroke="white"/>
<path d="M245.363 506.298C245.363 506.298 258.273 510.77 261.498 526.909C264.723 543.047 254.957 548.831 258.244 570.86C259.904 581.985 276.44 588.72 281.189 607.907C285.36 624.766 254.472 621.812 252.513 648.256C250.554 674.7 270.649 669.386 274.306 700.86C277.963 732.335 282.125 757.48 267.143 774.155C252.161 790.83 160.42 778.058 160.42 778.058C160.42 778.058 141.215 776.62 136.604 698.566C135.301 676.474 168.246 695.866 168.742 665.653C169.09 644.503 161.589 643.888 158.293 617.05C155.064 590.757 177.518 586.629 190.588 568.469C198.457 557.532 201.567 532.627 215.269 517.085C228.971 501.543 245.363 506.298 245.363 506.298Z" fill="#234D89"/>
<g opacity="0.1">
<path opacity="0.1" d="M233.68 600.47C233.68 600.47 213.095 604.587 206.234 647.47C199.373 690.353 206.234 772.007 206.234 772.007" stroke="white"/>
<path opacity="0.1" d="M206.234 655.363C206.234 655.363 216.526 645.414 226.819 640.263C233.262 637.124 240.252 635.261 247.403 634.778" stroke="white"/>
<path opacity="0.1" d="M206.234 747.994C206.234 747.994 216.526 738.045 226.819 732.894C233.262 729.755 240.252 727.892 247.403 727.409" stroke="white"/>
<path opacity="0.1" d="M175.3 694.103C186.707 692.587 202.917 695.875 202.917 695.875" stroke="white"/>
</g>
<path d="M339.595 617.47C339.595 617.47 351.483 639.34 352.605 679.154C353.727 718.968 344.081 776.727 344.081 776.727" stroke="#22E9DE" stroke-width="3"/>
<path d="M371.311 643.668C381.363 636.362 392.466 634.5 396.108 639.511C399.75 644.522 394.552 654.509 384.5 661.815C374.449 669.121 356.993 668.186 355.295 666.545C353.598 664.904 361.259 650.974 371.311 643.668Z" fill="#22E9DE"/>
<path d="M377.529 699.501C395.258 686.615 415.15 683.761 421.958 693.128C428.766 702.495 419.911 720.535 402.182 733.421C384.453 746.307 352.98 743.72 349.842 740.627C346.703 737.533 359.799 712.388 377.529 699.501Z" fill="#22E9DE"/>
<path d="M316.749 752.096C306.094 743.467 301.564 731.397 306.634 725.137C311.703 718.877 324.452 720.797 335.107 729.426C345.763 738.054 348.382 758.613 346.83 761.247C345.278 763.88 327.405 760.725 316.749 752.096Z" fill="#22E9DE"/>
<path d="M302.553 691.847C286.771 679.067 280.064 661.189 287.57 651.92C295.077 642.65 313.958 645.494 329.741 658.275C345.524 671.056 349.407 701.5 347.103 705.404C344.8 709.309 318.336 704.628 302.553 691.847Z" fill="#22E9DE"/>
<path d="M330.91 642.13C323.977 639.469 319.624 634.01 321.188 629.936C322.752 625.863 329.639 624.718 336.572 627.38C343.505 630.041 348.295 640.193 347.935 641.81C347.576 643.428 337.843 644.791 330.91 642.13Z" fill="#22E9DE"/>
<path d="M340.257 599.372C343.245 591.159 348.604 585.578 352.23 586.898C355.857 588.217 356.377 595.937 353.389 604.15C350.4 612.363 340.69 618.977 339.231 618.751C337.771 618.526 337.27 607.581 340.257 599.372Z" fill="#22E9DE"/>
<path d="M576.257 439.865C610.717 422.302 655.181 420.965 693.642 437.42C732.103 453.875 724.989 517.566 724.989 517.566H556.026C553.709 506.618 552.784 495.422 553.271 484.243C554.113 467.531 559.268 448.524 576.257 439.865Z" fill="white"/>
<path d="M621.441 403.009H653.901C653.762 407.034 654.401 411.048 655.783 414.831C658.018 420.356 662.141 427.486 661.434 428.918C660.727 430.35 653.313 434.709 642.14 435.39C630.967 436.071 618.74 431.302 617.44 429.39C616.14 427.478 621.027 420.781 622.379 414.827C623.119 410.874 622.795 406.796 621.441 403.009V403.009Z" fill="#EEA671"/>
<path d="M791.81 624.565H494.741C485.338 624.565 477.715 632.188 477.715 641.591C477.715 650.994 485.338 658.616 494.741 658.616H791.81C801.214 658.616 808.836 650.994 808.836 641.591C808.836 632.188 801.214 624.565 791.81 624.565Z" fill="#2E37A5"/>
<path d="M514.604 482.489H764.068C766.72 482.489 769.263 483.543 771.139 485.418C773.014 487.294 774.068 489.837 774.068 492.489V632.178C774.068 634.83 773.014 637.374 771.139 639.249C769.263 641.125 766.72 642.178 764.068 642.178H514.604C511.952 642.178 509.409 641.125 507.533 639.249C505.658 637.374 504.604 634.83 504.604 632.178V492.489C504.604 489.837 505.658 487.294 507.533 485.418C509.409 483.543 511.952 482.489 514.604 482.489V482.489Z" fill="#272F95"/>
<path d="M771.829 482.489H522.366C516.843 482.489 512.366 486.966 512.366 492.489V632.178C512.366 637.701 516.843 642.178 522.366 642.178H771.829C777.352 642.178 781.829 637.701 781.829 632.178V492.489C781.829 486.966 777.352 482.489 771.829 482.489Z" fill="#1C237B"/>
<path d="M619.809 341.444C619.809 341.444 666.28 336.431 671.614 342.593C676.948 348.755 670.226 372.206 668.453 389.595C666.679 406.984 667.163 405.983 662.834 413.181C658.505 420.38 652.732 423.362 642.212 423.591C631.691 423.82 622.722 414.592 617.046 407.751C611.371 400.911 613.357 386.142 611.064 383.401C608.77 380.66 604.957 378.574 603.166 373.2C601.375 367.827 600.825 363.617 603.906 361.901C606.986 360.186 613.696 369.109 616.067 365.661C618.438 362.213 619.809 341.444 619.809 341.444Z" fill="#FEC194"/>
<path d="M605.249 328.993C605.249 328.993 607.738 312.091 629.445 308.705C651.151 305.318 667.567 320.003 670.009 321.713C672.451 323.424 667.664 326.219 669.632 326.704C671.6 327.189 674.654 322.544 677.883 323.652C681.113 324.761 682.181 329.562 681.698 332.042C681.214 334.522 676.509 344.279 671.377 347.821C666.246 351.362 661.875 352.383 649.891 351.503C637.906 350.623 629.448 339.996 623.436 344.3C617.424 348.603 618.783 366.734 615.348 367.528C611.913 368.322 606.745 361.434 603.863 363.017C600.981 364.6 603.362 370.867 601.746 369.468C598.852 366.964 591.639 353.687 592.518 343.563C593.398 333.439 605.249 328.993 605.249 328.993Z" fill="#E70276"/>
<path d="M612.116 385.899C612.116 385.899 613.844 381.259 617.717 383.459C621.591 385.659 619.139 393.508 627.612 394.7C636.085 395.893 640.948 388.172 651.611 388.226C662.274 388.28 666.127 391.965 667.782 394.333C669.437 396.7 665.465 410.611 663.829 412.537C662.194 414.464 654.695 426.489 638.803 423.742C627.58 421.805 615.716 408.74 614.089 402.055C612.658 398.144 612.116 385.899 612.116 385.899Z" fill="#0B0744"/>
<path d="M638.315 399.301C640.263 395.927 645.007 394.737 647.884 394.214C650.761 393.691 655.94 393.457 658.793 396.412C660.062 397.664 660.817 399.345 660.911 401.125C661.004 402.905 660.428 404.656 659.297 406.034C657.15 408.367 655.009 405.327 650.208 405.746C645.406 406.165 643.068 409.321 640.094 407.709C637.119 406.097 636.367 402.675 638.315 399.301Z" fill="#FEC194"/>
<defs>
<linearGradient id="paint0_linear" x1="593.388" y1="326.597" x2="593.388" y2="622.462" gradientUnits="userSpaceOnUse">
<stop stop-color="#326CA7"/>
<stop offset="1" stop-color="#180C46"/>
</linearGradient>
</defs>
</svg>
